<svg id="svg" version="1.1" xmlns="http://www.w3.org/2000/svg" xmlns:xlink="http://www.w3.org/1999/xlink" width="400" height="90.32258064516128" viewBox="0, 0, 400,90.32258064516128"><g id="svgg"><path id="path0" d="M301.241 17.128 C 300.012 17.789,296.216 19.251,292.804 20.377 C 283.579 23.422,283.749 23.646,294.541 22.670 C 295.464 22.587,295.543 22.924,295.677 27.502 C 295.849 33.425,296.046 33.233,289.785 33.243 C 284.826 33.251,284.015 33.469,284.915 34.553 C 285.324 35.046,286.579 35.129,290.122 34.896 C 295.749 34.527,295.639 34.203,292.269 41.182 C 289.095 47.758,287.032 51.188,282.789 56.948 C 280.928 59.473,279.689 61.538,280.035 61.538 C 280.800 61.538,289.326 52.953,292.470 49.017 C 295.423 45.321,295.392 45.209,295.232 59.065 C 295.084 71.836,295.098 71.935,296.885 70.764 C 299.928 68.770,300.248 67.217,300.248 54.428 C 300.248 41.572,300.422 40.854,302.491 45.182 C 304.064 48.473,304.664 48.742,306.167 46.831 C 308.010 44.489,307.157 42.900,302.915 40.772 C 300.713 39.667,300.248 38.953,300.248 36.672 C 300.248 34.845,301.610 34.243,305.740 34.243 C 307.586 34.243,308.685 34.035,308.685 33.686 C 308.685 32.443,310.409 34.640,311.751 37.593 C 313.301 41.003,314.051 41.352,315.597 39.387 C 316.753 37.917,316.936 36.106,316.005 35.349 C 314.311 33.973,311.247 32.639,309.583 32.553 C 308.402 32.493,307.260 32.025,306.462 31.276 L 305.204 30.094 303.816 31.424 C 301.319 33.816,300.744 33.317,300.744 28.751 C 300.744 26.550,300.964 24.339,301.232 23.838 C 301.593 23.162,301.530 22.855,300.983 22.646 C 299.514 22.082,300.316 21.553,303.579 20.934 C 307.723 20.148,307.612 20.310,305.674 17.899 C 303.782 15.545,304.084 15.598,301.241 17.128 M240.695 17.561 C 239.163 18.554,233.038 21.328,229.156 22.787 C 228.109 23.181,227.185 24.320,227.916 24.317 C 227.984 24.317,229.661 24.007,231.643 23.629 C 235.918 22.814,235.873 22.755,235.632 28.790 L 235.484 32.506 231.107 32.650 C 225.255 32.842,225.345 33.932,231.230 34.140 L 235.333 34.285 235.009 35.576 C 234.223 38.708,227.486 51.100,223.810 56.174 C 222.966 57.340,222.494 58.366,222.761 58.456 C 223.203 58.603,224.946 56.881,232.700 48.635 L 235.267 45.906 235.148 57.069 C 235.012 69.721,235.263 70.496,238.188 66.458 L 239.702 64.367 239.702 53.730 C 239.702 42.585,240.101 40.880,241.610 45.569 C 242.341 47.840,243.466 48.268,244.778 46.774 C 246.808 44.461,246.239 42.905,242.680 41.043 L 240.447 39.875 240.299 36.811 L 240.151 33.747 244.145 33.747 C 248.596 33.747,248.951 33.408,246.823 31.187 L 245.508 29.814 244.056 31.036 C 243.257 31.708,242.035 32.258,241.340 32.258 L 240.077 32.258 240.290 27.808 C 240.461 24.237,240.360 23.303,239.783 23.081 C 238.543 22.605,239.656 22.102,243.089 21.588 C 246.873 21.021,247.050 20.661,244.777 18.163 C 242.887 16.086,242.956 16.096,240.695 17.561 M320.099 30.984 C 320.099 44.473,320.033 45.609,319.231 45.831 C 318.753 45.964,315.516 46.683,312.037 47.429 C 306.684 48.578,305.802 48.896,306.301 49.497 C 306.946 50.274,307.483 50.213,312.914 48.740 C 314.830 48.221,317.245 47.637,318.280 47.443 L 320.162 47.090 320.097 58.408 C 320.019 72.070,319.999 71.464,320.528 71.464 C 321.147 71.464,323.564 68.982,324.636 67.246 C 325.450 65.927,325.555 64.621,325.556 55.812 L 325.558 45.868 330.607 44.646 C 336.459 43.230,336.796 42.853,333.713 41.182 L 331.440 39.950 330.608 41.008 C 330.151 41.590,329.553 42.427,329.280 42.868 C 329.007 43.310,328.045 43.813,327.142 43.988 L 325.500 44.305 325.600 31.457 L 325.699 18.610 323.520 17.523 C 319.874 15.704,320.099 14.817,320.099 30.984 M349.876 22.829 L 349.876 29.280 347.712 29.280 C 344.161 29.280,340.890 29.867,341.096 30.467 C 341.214 30.811,342.846 31.017,345.456 31.017 L 349.628 31.017 349.768 36.599 L 349.908 42.181 347.287 43.393 C 345.845 44.059,343.828 44.942,342.804 45.354 C 340.644 46.223,340.576 46.627,342.002 50.058 C 343.301 53.184,343.129 53.190,346.379 49.899 C 349.849 46.385,349.876 46.424,349.876 55.076 C 349.876 63.792,349.837 63.935,347.340 64.334 C 345.206 64.676,345.112 64.826,346.170 66.224 C 346.570 66.754,346.898 67.801,346.898 68.552 C 346.898 71.192,348.307 70.901,351.596 67.580 C 354.532 64.616,354.758 63.541,354.803 52.357 L 354.842 42.432 357.885 39.973 C 361.222 37.276,361.058 36.390,357.598 38.418 C 356.392 39.124,355.279 39.702,355.123 39.702 C 354.966 39.702,354.839 37.719,354.839 35.295 L 354.839 30.889 357.912 30.666 C 359.637 30.541,361.070 30.189,361.179 29.862 C 361.308 29.475,362.856 29.280,365.798 29.280 L 370.223 29.280 370.223 33.706 C 370.223 40.021,370.532 39.702,364.422 39.702 C 359.080 39.702,357.266 40.631,361.515 41.191 L 363.399 41.439 364.856 46.402 C 365.657 49.132,366.994 52.855,367.828 54.677 L 369.343 57.988 366.507 60.632 C 363.415 63.514,358.070 67.622,353.970 70.267 C 352.537 71.192,351.365 72.163,351.365 72.425 C 351.365 73.743,362.683 67.336,370.979 61.322 C 371.434 60.992,372.432 61.601,374.427 63.423 C 381.154 69.572,385.688 71.755,387.570 69.752 C 388.198 69.083,389.688 68.077,390.882 67.516 C 393.737 66.174,393.650 65.957,389.702 64.577 C 385.943 63.263,379.731 60.095,377.308 58.256 L 375.708 57.041 378.400 53.707 C 379.881 51.873,382.151 48.586,383.446 46.402 C 384.740 44.218,386.259 41.909,386.820 41.271 L 387.841 40.111 386.358 38.925 C 383.497 36.638,382.265 36.413,380.718 37.895 C 379.744 38.829,378.822 39.206,377.516 39.206 L 375.682 39.206 375.682 34.072 L 375.682 28.939 382.707 28.619 C 390.664 28.257,390.678 28.252,389.042 26.503 C 386.853 24.163,386.176 24.054,384.415 25.761 C 382.939 27.191,382.584 27.295,379.218 27.295 L 375.604 27.295 375.827 23.697 C 375.949 21.718,376.134 19.668,376.238 19.141 C 376.388 18.378,375.981 18.051,374.248 17.539 C 373.050 17.186,371.654 16.764,371.146 16.603 C 370.284 16.330,370.223 16.674,370.223 21.803 C 370.223 26.700,370.129 27.296,369.355 27.304 C 366.354 27.334,361.488 28.008,361.215 28.431 C 361.018 28.737,360.356 28.511,359.522 27.855 L 358.151 26.777 357.083 27.781 C 355.075 29.667,354.750 29.151,354.982 24.442 C 355.099 22.053,355.282 19.691,355.389 19.192 C 355.561 18.388,351.892 16.379,350.248 16.378 C 350.043 16.377,349.876 19.280,349.876 22.829 M204.583 18.873 L 202.962 20.347 188.826 20.347 C 181.051 20.347,174.690 20.536,174.690 20.767 C 174.690 21.928,176.553 22.851,177.879 22.347 C 178.668 22.046,184.326 21.836,191.619 21.836 L 204.018 21.836 203.870 24.938 L 203.722 28.040 190.908 28.172 C 179.153 28.294,178.108 28.374,178.257 29.149 C 178.406 29.922,179.474 29.980,190.947 29.839 L 203.474 29.684 203.474 33.141 L 203.474 36.599 188.581 36.965 C 180.390 37.166,173.574 37.515,173.434 37.741 C 172.819 38.736,175.287 39.026,182.491 38.807 L 190.213 38.573 189.862 43.066 C 188.785 56.825,180.634 66.290,167.350 69.208 C 165.499 69.614,164.739 70.471,166.230 70.471 C 176.809 70.471,192.145 59.349,193.811 50.469 C 194.298 47.874,194.745 48.171,195.969 51.899 C 197.902 57.788,202.482 63.381,208.437 67.128 C 212.681 69.797,213.130 69.838,215.424 67.765 C 216.516 66.779,218.079 65.838,218.897 65.675 C 221.066 65.241,220.506 64.603,216.611 63.070 C 211.137 60.916,208.391 59.557,205.459 57.551 C 202.288 55.381,199.032 52.080,199.752 51.765 C 203.812 49.990,212.655 45.285,212.655 44.900 C 212.655 44.620,211.683 43.512,210.495 42.439 L 208.335 40.488 206.047 43.197 C 202.614 47.261,199.224 50.620,198.555 50.620 C 197.596 50.620,195.354 45.138,195.404 42.917 C 195.447 41.010,195.350 40.879,193.258 40.014 C 189.567 38.487,190.674 38.238,201.758 38.099 L 212.449 37.965 211.145 36.228 C 209.615 34.191,209.619 24.019,211.150 21.683 C 211.854 20.608,211.783 20.496,209.446 18.966 C 206.501 17.038,206.598 17.040,204.583 18.873 M12.903 31.266 L 12.903 43.672 19.135 43.672 L 25.367 43.672 25.215 41.563 L 25.062 39.454 21.216 39.309 L 17.370 39.164 17.370 29.011 L 17.370 18.859 15.136 18.859 L 12.903 18.859 12.903 31.266 M78.504 20.691 C 78.740 23.555,83.127 23.700,83.127 20.844 C 83.127 19.120,83.108 19.106,80.738 18.954 L 78.349 18.802 78.504 20.691 M94.338 21.439 C 93.738 22.886,93.049 24.516,92.808 25.062 C 91.227 28.633,85.360 43.003,85.360 43.304 C 85.360 43.507,86.489 43.672,87.869 43.672 L 90.378 43.672 91.365 41.315 C 93.059 37.269,92.749 37.469,97.325 37.469 L 101.489 37.469 102.961 40.571 L 104.433 43.672 107.030 43.672 L 109.627 43.672 108.872 41.811 C 107.931 39.495,107.910 39.443,103.245 28.288 L 99.406 19.107 97.417 18.958 C 95.445 18.810,95.421 18.829,94.338 21.439 M131.514 20.844 L 131.514 22.829 133.747 22.829 L 135.980 22.829 135.980 20.844 L 135.980 18.859 133.747 18.859 L 131.514 18.859 131.514 20.844 M151.109 20.438 C 150.971 20.798,150.916 32.370,150.988 46.154 L 151.117 71.216 152.605 71.216 L 154.094 71.216 154.094 45.658 L 154.094 20.099 152.727 19.942 C 151.928 19.850,151.255 20.057,151.109 20.438 M266.544 23.697 C 264.488 34.544,257.229 53.598,255.153 53.598 C 254.613 53.598,255.551 41.043,256.378 37.213 C 256.633 36.031,253.485 33.747,251.600 33.747 C 251.299 33.747,251.117 38.587,251.117 46.571 L 251.117 59.395 249.030 61.524 C 246.616 63.987,241.005 68.246,237.593 70.205 C 235.257 71.546,234.747 72.806,236.866 72.001 C 239.733 70.911,245.413 67.365,249.756 63.953 L 252.118 62.098 253.639 63.488 C 258.412 67.847,275.931 66.514,275.931 61.791 C 275.931 61.359,274.625 59.716,273.030 58.141 C 271.212 56.346,269.798 54.407,269.241 52.948 C 267.940 49.542,267.494 50.074,267.494 55.029 C 267.494 60.198,267.700 60.032,261.261 60.043 C 255.247 60.053,254.919 59.586,258.044 55.458 C 262.611 49.425,266.863 40.606,269.709 31.266 C 270.416 28.945,271.440 26.213,271.984 25.194 L 272.974 23.340 270.606 21.853 C 267.383 19.829,267.268 19.881,266.544 23.697 M310.510 21.170 C 310.371 21.308,310.798 22.216,311.458 23.189 C 312.118 24.161,312.913 25.806,313.224 26.845 C 314.136 29.889,317.632 28.981,317.610 25.705 C 317.596 23.545,311.822 19.857,310.510 21.170 M255.787 22.022 C 255.291 23.313,257.705 28.520,258.877 28.687 C 259.861 28.828,262.035 26.818,262.035 25.767 C 262.035 24.035,256.327 20.613,255.787 22.022 M52.637 25.121 C 51.788 25.733,51.368 25.817,51.230 25.403 C 51.122 25.079,50.159 24.814,49.090 24.814 L 47.146 24.814 47.146 34.243 L 47.146 43.672 49.340 43.672 L 51.534 43.672 51.698 37.271 C 51.884 29.976,52.402 28.784,55.384 28.784 C 58.110 28.784,58.561 29.997,58.561 37.331 L 58.561 43.672 61.042 43.672 L 63.524 43.672 63.524 37.314 C 63.524 30.025,64.060 28.784,67.208 28.784 C 69.959 28.784,70.471 30.144,70.471 37.452 L 70.471 43.672 72.740 43.672 L 75.008 43.672 74.849 36.019 C 74.696 28.644,74.645 28.316,73.449 27.038 C 70.595 23.987,66.500 23.402,63.282 25.586 L 61.413 26.854 60.239 25.751 C 58.634 24.244,54.346 23.888,52.637 25.121 M117.619 25.010 C 116.787 25.490,116.187 25.564,115.791 25.235 C 115.467 24.966,114.461 24.817,113.556 24.904 L 111.911 25.062 111.776 34.367 L 111.641 43.672 113.845 43.672 L 116.050 43.672 116.214 37.271 C 116.400 29.981,116.919 28.784,119.892 28.784 C 122.900 28.784,123.573 30.384,123.573 37.536 L 123.573 43.672 125.797 43.672 C 128.601 43.672,128.786 43.103,128.392 35.649 C 127.908 26.473,123.181 21.804,117.619 25.010 M26.799 31.811 C 26.799 42.611,30.270 46.689,36.948 43.734 C 38.190 43.185,39.206 42.946,39.206 43.204 C 39.206 43.462,40.099 43.672,41.191 43.672 L 43.176 43.672 43.176 34.215 L 43.176 24.757 41.067 24.909 L 38.958 25.062 38.710 31.266 C 38.388 39.312,37.492 40.795,33.691 39.573 C 31.723 38.940,31.266 37.277,31.266 30.746 L 31.266 24.814 29.032 24.814 L 26.799 24.814 26.799 31.811 M78.766 25.121 C 78.571 25.316,78.412 29.582,78.412 34.601 L 78.412 43.727 80.769 43.576 L 83.127 43.424 83.127 34.243 L 83.127 25.062 81.123 24.915 C 80.022 24.834,78.961 24.927,78.766 25.121 M131.844 25.145 C 131.663 25.327,131.514 29.570,131.514 34.574 L 131.514 43.672 133.747 43.672 L 135.980 43.672 135.980 34.243 L 135.980 24.814 134.078 24.814 C 133.031 24.814,132.026 24.963,131.844 25.145 M99.744 32.382 C 99.748 32.587,98.635 32.754,97.270 32.754 C 94.367 32.754,94.410 32.897,96.117 28.876 L 97.447 25.741 98.591 28.876 C 99.221 30.600,99.739 32.177,99.744 32.382 M268.486 39.467 C 268.486 39.654,269.119 40.621,269.892 41.616 C 270.665 42.611,271.642 44.311,272.064 45.395 C 273.084 48.017,274.080 48.620,275.405 47.421 C 276.707 46.243,276.795 43.157,275.558 42.072 C 273.770 40.505,268.486 38.558,268.486 39.467 M248.154 41.368 C 248.128 43.825,246.636 48.782,245.093 51.540 C 243.393 54.578,243.518 55.583,245.598 55.583 C 248.658 55.583,249.761 53.231,249.540 47.171 C 249.366 42.386,248.195 37.485,248.154 41.368 M379.653 41.203 C 379.653 42.886,373.398 53.627,372.457 53.561 C 371.290 53.479,364.764 43.547,364.764 41.853 C 364.764 41.120,366.781 40.887,374.069 40.778 C 377.606 40.725,379.653 40.881,379.653 41.203 M180.149 43.879 C 180.149 45.566,178.012 49.305,175.464 52.077 C 173.946 53.728,172.705 55.259,172.705 55.480 C 172.705 57.492,177.592 57.708,179.121 55.763 C 181.351 52.928,182.724 43.176,180.893 43.176 C 180.484 43.176,180.149 43.493,180.149 43.879 M12.996 50.744 C 13.125 52.088,13.379 52.384,14.516 52.514 L 15.881 52.671 15.881 59.338 L 15.881 66.005 17.370 66.005 L 18.859 66.005 18.859 59.305 L 18.859 52.605 20.314 52.605 C 21.868 52.605,22.619 51.449,22.043 49.946 C 21.785 49.275,20.948 49.132,17.285 49.132 L 12.840 49.132 12.996 50.744 M50.972 49.441 C 50.779 49.635,50.620 53.441,50.620 57.899 L 50.620 66.005 52.109 66.005 L 53.598 66.005 53.598 62.563 C 53.598 57.930,54.150 56.576,56.038 56.576 C 58.002 56.576,58.270 57.129,58.561 61.787 L 58.809 65.757 60.298 65.757 L 61.787 65.757 61.787 61.487 C 61.787 55.209,59.390 52.197,55.478 53.560 C 54.636 53.854,53.880 54.094,53.799 54.094 C 53.718 54.094,53.584 53.033,53.501 51.737 C 53.354 49.437,52.108 48.306,50.972 49.441 M91.534 49.773 C 91.399 50.125,91.350 53.866,91.426 58.085 L 91.563 65.757 93.052 65.757 L 94.541 65.757 94.678 57.854 C 94.821 49.618,94.714 49.157,92.664 49.139 C 92.178 49.135,91.670 49.420,91.534 49.773 M25.195 54.123 C 19.227 57.275,21.644 66.501,28.438 66.501 C 30.522 66.501,33.444 64.617,33.657 63.134 C 33.849 61.806,32.038 61.594,30.492 62.763 C 29.315 63.653,28.235 63.704,26.574 62.948 C 23.858 61.710,25.067 61.042,30.025 61.042 L 34.739 61.042 34.738 59.429 C 34.732 54.693,29.562 51.818,25.195 54.123 M39.609 54.112 C 33.578 57.298,35.865 66.501,42.688 66.501 C 45.072 66.501,48.635 64.220,48.635 62.693 C 48.635 61.793,45.675 61.865,44.446 62.795 C 42.257 64.451,39.206 62.662,39.206 59.722 C 39.206 56.976,42.550 55.570,44.884 57.336 C 47.308 59.169,49.487 57.884,47.662 55.697 C 45.612 53.239,42.444 52.615,39.609 54.112 M68.352 53.643 C 67.869 53.925,67.032 54.014,66.491 53.843 C 63.812 52.993,63.481 53.701,63.632 59.964 L 63.772 65.757 65.261 65.757 L 66.749 65.757 66.998 61.787 C 67.289 57.129,67.557 56.576,69.520 56.576 C 71.409 56.576,71.960 57.930,71.960 62.563 L 71.960 66.005 73.449 66.005 L 74.938 66.005 74.938 61.819 C 74.938 55.111,72.030 51.502,68.352 53.643 M80.230 54.150 C 74.467 57.190,76.222 65.762,82.731 66.368 C 90.169 67.061,92.648 56.697,85.722 53.866 C 83.321 52.885,82.552 52.925,80.230 54.150 M100.472 53.800 C 97.944 54.901,96.278 57.307,96.278 59.857 C 96.278 66.873,105.926 69.045,108.934 62.706 C 111.458 57.389,105.829 51.466,100.472 53.800 M114.029 54.123 C 109.664 56.428,109.432 62.558,113.604 65.370 C 115.427 66.598,118.525 66.884,119.495 65.914 C 120.483 64.926,120.816 65.931,119.854 66.994 C 118.889 68.061,115.452 68.407,114.888 67.494 C 114.418 66.733,111.166 66.875,111.166 67.655 C 111.166 69.543,115.512 71.611,118.204 71.003 C 122.879 69.949,123.695 68.348,123.713 60.194 C 123.728 53.425,123.643 53.167,121.639 53.923 C 120.585 54.321,119.945 54.289,119.052 53.794 C 117.428 52.894,116.205 52.974,114.029 54.123 M125.257 53.903 C 124.905 54.048,125.498 56.078,126.900 59.533 L 129.092 64.935 128.030 67.267 C 126.843 69.873,127.194 70.791,129.188 70.291 C 130.000 70.087,130.661 69.359,131.158 68.119 C 131.569 67.093,132.460 65.025,133.136 63.524 C 137.513 53.807,137.557 53.598,135.200 53.598 C 134.011 53.598,131.514 57.843,131.514 59.863 C 131.514 61.467,130.560 60.323,129.496 57.444 C 128.115 53.706,127.329 53.048,125.257 53.903 M30.670 57.171 C 31.772 58.273,31.280 58.561,28.288 58.561 C 25.296 58.561,24.803 58.273,25.906 57.171 C 26.676 56.401,29.900 56.401,30.670 57.171 M85.820 57.883 C 87.171 59.601,87.119 60.817,85.630 62.305 C 83.489 64.447,79.901 63.011,79.901 60.014 C 79.901 56.798,83.849 55.377,85.820 57.883 M105.431 57.679 C 107.675 60.883,104.549 64.798,101.184 62.997 C 99.209 61.940,99.030 58.154,100.900 56.966 C 102.156 56.167,104.646 56.559,105.431 57.679 M119.823 57.679 C 121.442 59.991,119.894 63.524,117.261 63.524 C 115.748 63.524,113.648 61.428,113.648 59.918 C 113.648 56.955,118.168 55.316,119.823 57.679 " stroke="none" fill="#000000" fill-rule="evenodd"></path></g></svg>