<svg id="svg" version="1.1" xmlns="http://www.w3.org/2000/svg" xmlns:xlink="http://www.w3.org/1999/xlink" width="400" height="77.70069375619426" viewBox="0, 0, 400,77.70069375619426"><g id="svgg"><path id="path0" d="M223.675 11.187 C 222.900 11.270,222.225 11.396,222.175 11.465 C 222.125 11.535,221.671 11.720,221.167 11.876 C 219.870 12.277,218.129 13.785,217.467 15.083 C 216.900 16.194,216.471 17.255,216.296 17.982 C 216.166 18.519,216.081 26.365,216.013 44.048 C 215.947 61.446,215.862 69.383,215.741 69.464 C 215.645 69.530,215.438 69.921,215.282 70.333 C 214.488 72.424,212.632 73.248,209.636 72.838 C 207.863 72.596,208.050 72.463,207.747 74.184 C 207.434 75.958,207.432 76.500,207.736 76.500 C 207.866 76.500,208.002 76.590,208.039 76.700 C 208.130 76.972,213.294 76.998,213.465 76.727 C 213.530 76.625,213.913 76.486,214.316 76.418 C 215.950 76.145,218.667 74.270,218.667 73.416 C 218.667 73.363,218.808 73.167,218.982 72.981 C 219.155 72.795,219.393 72.292,219.511 71.863 C 219.629 71.434,219.787 71.042,219.862 70.991 C 220.336 70.669,220.389 68.875,220.452 50.958 L 220.516 32.667 223.675 32.667 L 226.833 32.667 226.833 30.750 L 226.833 28.833 223.654 28.833 L 220.474 28.833 220.529 23.792 L 220.583 18.750 221.114 17.692 C 222.214 15.497,223.780 14.806,226.798 15.183 C 228.635 15.412,228.450 15.542,228.753 13.816 C 229.172 11.438,229.156 11.373,228.125 11.267 C 226.159 11.064,225.013 11.043,223.675 11.187 M339.500 27.240 C 339.500 37.665,339.443 43.182,339.333 43.250 C 339.242 43.307,339.167 43.607,339.167 43.918 C 339.167 44.930,338.495 47.615,338.188 47.830 C 338.121 47.878,337.912 48.217,337.724 48.584 C 336.617 50.744,333.897 52.759,331.458 53.226 C 330.931 53.327,330.500 53.467,330.500 53.538 C 330.500 53.609,329.712 53.667,328.750 53.667 C 327.694 53.667,327.000 53.601,327.000 53.500 C 327.000 53.408,326.820 53.333,326.601 53.333 C 326.052 53.333,324.000 52.686,324.000 52.513 C 324.000 52.435,323.869 52.331,323.708 52.280 C 322.626 51.936,320.680 50.005,320.032 48.631 C 318.979 46.397,318.866 46.022,318.674 44.135 C 318.439 41.821,318.771 39.509,319.597 37.704 C 319.819 37.220,320.000 36.758,320.000 36.676 C 320.000 36.462,320.597 35.752,321.853 34.475 C 323.996 32.293,327.218 31.300,330.417 31.836 C 331.058 31.944,331.827 32.070,332.125 32.117 L 332.667 32.203 332.664 30.393 C 332.663 29.398,332.606 28.498,332.539 28.394 C 332.116 27.738,325.097 27.695,324.861 28.347 C 324.831 28.431,324.662 28.500,324.487 28.500 C 324.102 28.500,322.118 29.167,322.000 29.336 C 321.954 29.401,321.608 29.612,321.231 29.803 C 320.853 29.994,320.317 30.342,320.040 30.575 C 319.762 30.809,319.480 31.000,319.414 31.000 C 319.347 31.000,318.927 31.394,318.482 31.875 C 317.241 33.215,317.097 33.386,316.905 33.748 C 316.540 34.432,316.245 34.909,316.062 35.110 C 315.959 35.223,315.739 35.770,315.572 36.325 C 315.406 36.879,315.220 37.333,315.159 37.333 C 314.276 37.333,314.252 47.383,315.133 47.989 C 315.209 48.041,315.404 48.513,315.566 49.037 C 315.729 49.562,315.995 50.162,316.157 50.370 C 316.320 50.579,316.587 51.012,316.750 51.333 C 317.071 51.964,317.243 52.170,318.454 53.377 C 319.847 54.764,321.537 55.893,322.917 56.357 C 323.283 56.481,323.624 56.636,323.673 56.702 C 324.346 57.604,333.667 57.560,333.667 56.655 C 333.667 56.570,333.770 56.500,333.895 56.500 C 334.147 56.500,335.701 55.846,335.833 55.684 C 335.879 55.629,336.111 55.483,336.349 55.360 C 336.587 55.238,337.102 54.845,337.495 54.486 C 337.888 54.127,338.274 53.833,338.354 53.833 C 338.434 53.833,338.500 53.735,338.500 53.615 C 338.500 53.494,338.725 53.180,339.000 52.917 L 339.500 52.438 339.500 54.635 L 339.500 56.833 341.667 56.833 L 343.833 56.833 343.833 34.083 L 343.833 11.333 341.667 11.333 L 339.500 11.333 339.500 27.240 M69.450 12.272 C 69.386 12.336,69.333 12.822,69.333 13.351 L 69.333 14.313 68.593 14.424 C 67.217 14.630,67.256 14.449,67.202 20.836 L 67.154 26.471 67.619 26.561 C 67.874 26.611,69.171 26.780,70.500 26.936 C 71.829 27.093,72.954 27.275,73.000 27.343 C 73.046 27.410,73.608 27.491,74.250 27.524 L 75.417 27.583 75.462 21.667 C 75.516 14.656,75.524 14.692,73.912 14.399 L 73.083 14.248 73.000 13.249 L 72.917 12.250 71.242 12.203 C 70.320 12.177,69.514 12.208,69.450 12.272 M264.500 24.667 L 264.500 28.667 261.500 28.667 L 258.500 28.667 258.500 30.500 L 258.500 32.333 261.494 32.333 L 264.488 32.333 264.540 42.375 L 264.593 52.417 265.142 53.481 C 265.782 54.724,267.078 56.057,267.913 56.332 C 268.236 56.439,268.500 56.584,268.500 56.655 C 268.500 56.850,270.657 57.167,271.984 57.167 C 273.383 57.167,275.667 56.849,275.667 56.654 C 275.667 56.578,275.935 56.465,276.264 56.403 C 276.771 56.308,276.847 56.237,276.766 55.937 C 276.714 55.743,276.670 54.887,276.669 54.036 C 276.667 52.522,276.394 51.863,276.020 52.468 C 275.685 53.010,272.452 53.360,271.141 52.996 C 270.456 52.805,269.333 51.678,269.333 51.180 C 269.333 51.005,269.240 50.830,269.125 50.792 C 268.962 50.738,268.906 48.700,268.867 41.528 L 268.817 32.333 272.825 32.333 L 276.833 32.333 276.833 30.500 L 276.833 28.667 272.833 28.667 L 268.833 28.667 268.833 24.667 L 268.833 20.667 266.667 20.667 L 264.500 20.667 264.500 24.667 M353.841 23.955 C 353.708 24.008,353.450 24.189,353.268 24.359 C 353.086 24.528,352.880 24.667,352.810 24.667 C 352.265 24.667,351.920 27.042,352.301 28.167 C 352.774 29.563,355.677 30.490,356.621 29.546 C 356.798 29.369,357.056 29.181,357.195 29.128 C 358.234 28.729,358.241 24.922,357.203 24.549 C 357.046 24.493,356.782 24.309,356.619 24.140 C 356.321 23.834,354.463 23.710,353.841 23.955 M242.167 28.040 C 241.571 28.131,241.046 28.253,241.000 28.311 C 240.954 28.369,240.373 28.597,239.708 28.818 C 239.044 29.038,238.500 29.269,238.500 29.331 C 238.500 29.393,238.294 29.548,238.042 29.675 C 237.521 29.938,236.167 31.221,236.167 31.452 C 236.167 31.535,236.023 31.758,235.847 31.946 C 233.928 34.007,234.744 39.800,237.195 41.513 C 237.500 41.726,237.787 41.949,237.833 42.009 C 238.068 42.314,240.583 43.316,241.750 43.569 C 242.483 43.727,243.383 43.959,243.750 44.084 C 244.117 44.209,245.054 44.479,245.833 44.685 C 246.612 44.891,247.349 45.158,247.470 45.279 C 247.591 45.401,247.801 45.500,247.937 45.500 C 248.596 45.500,250.170 46.702,250.600 47.533 C 251.764 49.781,249.489 53.333,246.887 53.333 C 246.674 53.333,246.500 53.408,246.500 53.500 C 246.500 53.714,243.433 53.723,243.039 53.510 C 242.880 53.424,242.206 53.197,241.542 53.005 C 240.877 52.814,240.333 52.588,240.333 52.503 C 240.333 52.418,240.076 52.227,239.762 52.078 C 239.097 51.762,237.167 49.783,237.167 49.416 C 237.167 48.931,236.468 49.323,235.007 50.625 C 234.776 50.831,234.493 51.000,234.378 51.000 C 234.263 51.000,234.076 51.150,233.961 51.333 C 233.847 51.517,233.659 51.667,233.543 51.667 C 233.249 51.667,233.282 51.938,233.625 52.349 C 234.413 53.292,236.550 55.333,236.750 55.333 C 236.874 55.333,237.075 55.431,237.196 55.551 C 237.318 55.671,237.867 55.952,238.417 56.175 C 238.967 56.398,239.454 56.626,239.500 56.683 C 240.239 57.595,249.501 57.581,249.805 56.667 C 249.836 56.575,249.970 56.500,250.104 56.500 C 250.456 56.500,251.727 55.830,251.883 55.562 C 251.957 55.436,252.108 55.333,252.219 55.333 C 252.510 55.333,253.734 54.020,254.083 53.333 C 254.246 53.012,254.427 52.712,254.485 52.667 C 255.651 51.743,255.475 46.366,254.225 44.729 C 253.918 44.326,253.667 43.923,253.667 43.832 C 253.667 43.741,253.560 43.667,253.429 43.667 C 253.298 43.667,253.052 43.491,252.883 43.276 C 252.714 43.061,252.184 42.705,251.705 42.485 C 251.225 42.265,250.833 42.035,250.833 41.973 C 250.833 41.911,250.327 41.698,249.708 41.499 C 249.090 41.300,248.358 41.041,248.083 40.924 C 247.808 40.806,246.683 40.538,245.583 40.328 C 244.483 40.118,243.546 39.900,243.500 39.844 C 243.454 39.787,243.004 39.612,242.500 39.455 C 240.186 38.735,239.105 37.529,239.122 35.689 C 239.135 34.359,240.150 32.691,240.958 32.672 C 241.073 32.669,241.167 32.594,241.167 32.505 C 241.167 31.460,247.399 31.605,248.549 32.676 C 248.740 32.854,248.972 33.000,249.064 33.000 C 249.317 33.000,250.947 34.737,251.076 35.144 C 251.217 35.586,251.592 35.595,252.285 35.172 C 252.810 34.852,253.036 34.675,253.881 33.922 C 254.112 33.717,254.420 33.502,254.567 33.446 C 255.360 33.142,253.420 30.602,251.744 29.750 C 251.384 29.567,251.003 29.338,250.898 29.241 C 250.794 29.144,250.230 28.923,249.646 28.749 C 249.061 28.575,248.546 28.381,248.500 28.318 C 248.197 27.903,244.221 27.728,242.167 28.040 M379.375 28.038 C 378.710 28.126,378.167 28.266,378.167 28.349 C 378.167 28.432,378.026 28.500,377.855 28.500 C 377.439 28.500,375.456 29.139,375.341 29.310 C 375.291 29.384,374.819 29.647,374.292 29.894 C 373.765 30.141,373.333 30.411,373.333 30.494 C 373.333 30.576,373.178 30.693,372.989 30.754 C 372.529 30.900,370.428 33.000,370.092 33.651 C 369.945 33.935,369.762 34.167,369.685 34.167 C 369.608 34.167,369.337 34.635,369.081 35.208 C 368.826 35.781,368.562 36.287,368.496 36.333 C 368.341 36.440,367.667 39.108,367.667 39.615 C 367.667 39.827,367.592 40.000,367.500 40.000 C 367.396 40.000,367.333 41.028,367.333 42.750 C 367.333 44.472,367.396 45.500,367.500 45.500 C 367.592 45.500,367.668 45.669,367.670 45.875 C 367.678 47.025,369.005 50.440,369.787 51.327 C 369.950 51.512,370.271 51.901,370.500 52.193 C 371.544 53.523,373.079 54.882,373.958 55.254 C 374.256 55.380,374.500 55.550,374.500 55.631 C 374.500 55.713,374.819 55.881,375.208 56.005 C 375.598 56.128,376.292 56.394,376.750 56.596 C 379.050 57.609,387.127 57.670,387.833 56.679 C 387.879 56.615,388.385 56.389,388.958 56.177 C 389.531 55.966,390.000 55.732,390.000 55.658 C 390.000 55.583,390.169 55.471,390.375 55.409 C 391.201 55.158,393.511 53.168,394.331 52.000 C 394.557 51.679,394.872 51.273,395.033 51.098 C 395.194 50.922,395.408 50.529,395.509 50.223 C 395.610 49.917,395.751 49.667,395.823 49.667 C 395.954 49.667,396.667 47.586,396.667 47.204 C 396.667 47.092,396.733 47.000,396.813 47.000 C 397.049 47.000,397.333 44.634,397.333 42.667 C 397.333 40.699,397.049 38.333,396.813 38.333 C 396.733 38.333,396.667 38.201,396.667 38.039 C 396.667 37.651,396.048 35.967,395.860 35.845 C 395.780 35.793,395.609 35.459,395.482 35.102 C 395.354 34.746,395.083 34.296,394.878 34.102 C 394.673 33.909,394.504 33.663,394.503 33.556 C 394.501 33.450,394.294 33.183,394.042 32.963 C 393.790 32.743,393.503 32.422,393.406 32.251 C 393.308 32.079,393.087 31.859,392.916 31.761 C 392.744 31.663,392.424 31.377,392.204 31.125 C 391.984 30.873,391.698 30.667,391.569 30.667 C 391.439 30.667,391.333 30.594,391.333 30.505 C 391.333 30.416,390.902 30.136,390.375 29.882 C 389.848 29.629,389.373 29.362,389.321 29.289 C 389.268 29.217,388.668 29.001,387.987 28.810 C 387.307 28.619,386.673 28.401,386.578 28.324 C 386.049 27.899,381.724 27.727,379.375 28.038 M144.333 28.103 C 144.012 28.144,143.600 28.244,143.417 28.327 C 143.233 28.409,142.540 28.638,141.875 28.835 C 141.210 29.033,140.667 29.254,140.667 29.328 C 140.667 29.401,140.535 29.505,140.375 29.559 C 139.835 29.741,138.935 30.325,138.787 30.589 C 138.706 30.734,138.457 30.921,138.234 31.006 C 138.010 31.091,137.758 31.343,137.673 31.567 C 137.588 31.790,137.414 32.035,137.286 32.112 C 137.158 32.188,136.976 32.393,136.880 32.568 C 136.748 32.812,136.678 32.407,136.585 30.860 L 136.463 28.833 134.295 28.833 L 132.128 28.833 132.241 29.292 C 132.303 29.544,132.396 35.844,132.448 43.292 L 132.541 56.833 134.678 56.833 L 136.814 56.833 136.866 48.055 C 136.905 41.218,136.963 39.262,137.125 39.208 C 137.240 39.170,137.333 38.993,137.333 38.814 C 137.333 38.411,137.986 36.447,138.158 36.333 C 138.227 36.288,138.412 35.977,138.569 35.643 C 138.944 34.845,140.389 33.396,141.241 32.965 C 141.612 32.776,141.954 32.570,142.000 32.507 C 142.529 31.777,148.333 31.786,148.333 32.517 C 148.333 32.599,148.412 32.667,148.509 32.667 C 149.261 32.667,151.156 34.847,151.504 36.113 C 151.626 36.555,151.779 36.954,151.845 37.000 C 152.186 37.236,152.332 40.686,152.333 48.458 L 152.333 56.833 154.500 56.833 L 156.667 56.833 156.667 47.272 C 156.667 37.077,156.579 35.702,155.838 34.256 C 155.652 33.893,155.500 33.508,155.500 33.400 C 155.500 32.772,153.312 30.211,152.361 29.726 C 152.028 29.556,151.660 29.328,151.544 29.220 C 151.322 29.013,149.709 28.500,149.280 28.500 C 149.141 28.500,149.003 28.425,148.972 28.334 C 148.913 28.158,145.321 27.979,144.333 28.103 M173.875 28.110 C 173.485 28.152,173.167 28.257,173.167 28.343 C 173.167 28.429,172.998 28.500,172.791 28.500 C 172.315 28.500,170.139 29.118,170.012 29.288 C 169.959 29.359,169.485 29.629,168.958 29.888 C 168.431 30.147,168.000 30.423,168.000 30.501 C 168.000 30.580,167.842 30.695,167.648 30.756 C 167.246 30.883,164.833 33.195,164.833 33.452 C 164.833 33.545,164.659 33.800,164.445 34.019 C 164.231 34.238,163.913 34.773,163.737 35.208 C 163.561 35.643,163.363 35.999,163.296 35.999 C 163.230 36.000,163.020 36.544,162.828 37.208 C 162.637 37.873,162.400 38.563,162.302 38.741 C 161.753 39.738,161.776 46.620,162.329 46.804 C 162.423 46.835,162.500 46.990,162.500 47.148 C 162.500 47.512,163.179 49.555,163.337 49.667 C 163.402 49.712,163.625 50.087,163.833 50.500 C 164.041 50.913,164.258 51.288,164.315 51.333 C 164.371 51.379,164.621 51.717,164.870 52.083 C 165.690 53.292,167.497 54.917,168.497 55.344 C 168.724 55.441,168.949 55.581,168.997 55.653 C 169.112 55.830,170.648 56.500,170.938 56.500 C 171.064 56.500,171.167 56.559,171.167 56.632 C 171.167 57.061,175.255 57.578,177.500 57.434 C 179.259 57.321,181.667 56.863,181.667 56.643 C 181.667 56.564,181.770 56.500,181.895 56.500 C 182.220 56.500,183.693 55.830,183.964 55.560 C 184.089 55.435,184.270 55.333,184.368 55.333 C 184.584 55.333,186.090 54.162,187.047 53.250 C 187.694 52.633,187.971 52.279,188.270 51.686 C 188.411 51.407,188.166 50.979,187.734 50.746 C 187.559 50.652,187.205 50.390,186.945 50.163 C 186.686 49.936,186.236 49.542,185.945 49.287 C 185.353 48.769,185.007 48.760,184.754 49.255 C 184.071 50.594,180.932 52.857,179.277 53.204 C 178.758 53.313,178.333 53.462,178.333 53.534 C 178.333 53.607,177.471 53.667,176.417 53.667 C 175.362 53.667,174.500 53.609,174.500 53.538 C 174.500 53.467,174.069 53.311,173.542 53.192 C 171.934 52.827,168.167 50.117,168.167 49.326 C 168.167 49.235,167.966 48.843,167.721 48.455 C 167.304 47.796,166.667 45.799,166.667 45.150 C 166.667 44.991,166.588 44.835,166.491 44.803 C 166.246 44.721,166.241 40.448,166.485 40.366 C 166.585 40.333,166.667 40.132,166.667 39.920 C 166.667 39.377,167.317 37.333,167.490 37.333 C 167.569 37.333,167.713 37.127,167.809 36.875 C 168.353 35.451,169.982 33.821,171.661 33.022 C 172.168 32.781,172.628 32.523,172.682 32.449 C 172.817 32.265,175.243 31.845,176.167 31.845 C 177.090 31.845,179.516 32.265,179.651 32.449 C 179.705 32.523,180.125 32.770,180.583 32.999 C 181.971 33.690,184.000 36.010,184.000 36.904 C 184.000 37.035,184.107 37.249,184.237 37.380 C 184.480 37.623,184.833 39.193,184.833 40.031 L 184.833 40.500 180.161 40.500 L 175.489 40.500 175.536 42.292 L 175.583 44.083 182.083 44.130 C 185.658 44.155,188.762 44.132,188.981 44.079 L 189.379 43.982 189.285 41.283 C 189.199 38.805,188.851 36.588,188.508 36.333 C 188.446 36.287,188.222 35.781,188.011 35.208 C 187.799 34.635,187.572 34.167,187.506 34.167 C 187.440 34.167,187.219 33.842,187.015 33.445 C 186.655 32.746,184.922 30.833,184.648 30.833 C 184.574 30.833,184.379 30.691,184.215 30.518 C 183.710 29.985,181.686 29.008,180.522 28.736 C 179.914 28.594,179.282 28.405,179.118 28.316 C 178.789 28.139,175.000 27.990,173.875 28.110 M206.919 28.124 C 206.553 28.161,206.178 28.252,206.085 28.326 C 205.993 28.399,205.467 28.586,204.917 28.741 C 204.367 28.896,203.842 29.118,203.750 29.234 C 203.658 29.351,203.304 29.579,202.962 29.740 C 202.264 30.071,200.167 32.206,200.167 32.586 C 200.167 32.722,200.103 32.833,200.024 32.833 C 199.880 32.833,199.667 30.880,199.667 29.558 L 199.667 28.833 197.477 28.833 L 195.288 28.833 195.394 29.607 C 195.452 30.032,195.500 36.334,195.500 43.611 L 195.500 56.843 197.792 56.796 L 200.083 56.750 200.179 48.083 C 200.275 39.425,200.407 37.592,200.965 37.173 C 201.030 37.123,201.267 36.708,201.492 36.250 C 201.941 35.334,202.071 35.153,202.800 34.417 C 203.788 33.420,204.533 32.961,205.500 32.751 C 205.821 32.682,206.137 32.540,206.202 32.437 C 206.365 32.181,209.780 32.214,210.041 32.474 C 210.806 33.239,211.061 32.657,211.277 29.651 L 211.380 28.219 210.481 28.111 C 209.556 28.000,208.084 28.005,206.919 28.124 M283.216 38.625 C 283.286 48.221,283.377 50.007,283.826 50.583 C 283.897 50.675,284.082 51.136,284.236 51.609 C 284.390 52.081,284.662 52.636,284.841 52.843 C 285.020 53.049,285.167 53.303,285.167 53.408 C 285.167 53.576,286.397 54.910,287.274 55.693 C 287.444 55.845,287.921 56.104,288.333 56.268 C 288.746 56.432,289.171 56.652,289.278 56.757 C 290.133 57.599,297.730 57.558,298.318 56.708 C 298.372 56.630,298.765 56.436,299.191 56.276 C 299.617 56.116,300.135 55.839,300.342 55.659 C 300.548 55.480,300.763 55.333,300.817 55.333 C 300.971 55.333,302.733 53.633,303.035 53.193 C 303.326 52.769,303.437 53.346,303.544 55.833 L 303.583 56.750 305.792 56.797 L 308.000 56.843 308.000 55.922 C 308.000 55.415,307.925 55.000,307.833 55.000 C 307.724 55.000,307.667 50.500,307.667 41.833 L 307.667 28.667 305.417 28.667 L 303.167 28.667 303.167 36.843 C 303.167 44.602,303.034 47.333,302.655 47.333 C 302.585 47.333,302.475 47.566,302.413 47.851 C 302.252 48.584,301.679 49.833,301.503 49.833 C 301.422 49.833,301.306 49.990,301.246 50.181 C 301.111 50.605,299.679 52.167,299.424 52.167 C 299.323 52.167,299.125 52.302,298.983 52.468 C 298.841 52.634,298.280 52.908,297.737 53.077 C 297.194 53.246,296.699 53.463,296.637 53.558 C 296.492 53.780,293.163 53.763,293.021 53.539 C 292.964 53.449,292.654 53.319,292.333 53.251 C 291.560 53.086,290.801 52.689,290.532 52.309 C 290.412 52.139,290.208 52.000,290.078 52.000 C 289.948 52.000,289.729 51.782,289.591 51.516 C 289.454 51.249,289.246 50.931,289.129 50.807 C 288.783 50.443,288.345 49.380,288.226 48.623 C 288.166 48.234,288.034 47.863,287.933 47.798 C 287.805 47.714,287.735 44.842,287.699 38.173 L 287.649 28.667 285.396 28.667 L 283.143 28.667 283.216 38.625 M385.400 32.086 C 385.928 32.223,386.467 32.443,386.598 32.574 C 386.728 32.705,387.004 32.862,387.209 32.924 C 388.306 33.255,390.904 35.854,391.241 36.957 C 391.304 37.163,391.447 37.426,391.559 37.541 C 391.846 37.837,392.333 39.701,392.450 40.952 C 392.505 41.534,392.613 42.050,392.691 42.099 C 392.891 42.222,392.869 43.333,392.667 43.333 C 392.575 43.333,392.499 43.615,392.497 43.958 C 392.489 45.666,391.148 49.286,390.336 49.793 C 390.151 49.908,390.000 50.099,390.000 50.216 C 390.000 50.846,387.022 52.716,385.337 53.144 C 384.696 53.307,384.120 53.491,384.058 53.553 C 383.873 53.738,380.500 53.687,380.500 53.500 C 380.500 53.408,380.320 53.333,380.101 53.333 C 379.590 53.333,377.500 52.691,377.500 52.535 C 377.500 52.469,377.159 52.235,376.742 52.014 C 375.466 51.337,373.806 49.438,373.229 47.995 C 373.083 47.631,372.911 47.333,372.846 47.333 C 371.952 47.333,371.915 38.797,372.806 38.173 C 372.877 38.124,373.103 37.686,373.309 37.200 C 373.725 36.217,373.741 36.196,375.206 34.644 C 376.718 33.042,378.389 32.211,381.000 31.762 C 381.748 31.633,384.417 31.830,385.400 32.086 M353.037 45.042 C 353.095 53.179,353.075 53.019,354.192 54.549 C 354.499 54.969,354.846 55.317,354.964 55.323 C 355.081 55.329,355.222 55.449,355.276 55.590 C 355.383 55.870,356.505 56.500,356.896 56.500 C 357.030 56.500,357.164 56.576,357.195 56.669 C 357.399 57.280,364.000 57.258,364.000 56.646 C 364.000 56.566,364.169 56.499,364.375 56.497 C 365.109 56.492,365.149 56.361,365.047 54.289 C 364.974 52.805,364.896 52.333,364.725 52.333 C 364.601 52.333,364.500 52.400,364.500 52.481 C 364.500 52.562,364.331 52.669,364.125 52.719 C 363.919 52.769,363.450 52.890,363.083 52.989 C 361.312 53.463,359.256 53.143,358.437 52.266 C 357.462 51.222,357.434 51.009,357.370 44.042 L 357.312 37.667 355.148 37.667 L 352.984 37.667 353.037 45.042 M12.583 55.597 C 12.308 55.752,11.883 55.984,11.638 56.112 C 10.802 56.549,10.032 58.116,10.014 59.417 C 10.001 60.327,10.268 61.500,10.488 61.500 C 10.564 61.500,10.722 61.731,10.839 62.014 C 10.956 62.297,11.228 62.595,11.443 62.677 C 11.658 62.758,11.833 62.896,11.833 62.982 C 11.833 63.587,15.200 63.851,16.185 63.324 C 16.758 63.017,17.667 62.138,17.667 61.890 C 17.667 61.767,17.734 61.667,17.817 61.667 C 18.569 61.667,18.481 58.003,17.709 57.195 C 17.593 57.074,17.421 56.831,17.327 56.655 C 17.234 56.480,16.915 56.213,16.620 56.062 C 16.325 55.911,16.033 55.709,15.972 55.614 C 15.766 55.294,13.144 55.280,12.583 55.597 M76.262 55.446 C 76.085 55.495,75.836 55.640,75.708 55.768 C 75.581 55.896,75.378 56.000,75.259 56.000 C 73.899 56.000,72.987 60.111,73.987 61.730 C 75.227 63.736,78.581 64.358,80.163 62.875 C 80.383 62.669,80.616 62.500,80.681 62.500 C 80.840 62.500,81.500 61.220,81.500 60.912 C 81.500 60.777,81.575 60.667,81.667 60.667 C 81.762 60.667,81.833 60.167,81.833 59.500 C 81.833 58.858,81.770 58.333,81.693 58.333 C 81.616 58.333,81.465 58.042,81.359 57.685 C 81.158 57.017,80.032 55.833,79.597 55.833 C 79.467 55.833,79.330 55.741,79.293 55.628 C 79.221 55.412,76.883 55.272,76.262 55.446 " stroke="none" fill="#fcfcfc" fill-rule="evenodd"></path><path id="path1" d="M10.386 0.168 C 9.796 0.406,9.667 0.875,9.667 2.789 C 9.667 5.116,9.517 5.000,12.533 5.000 L 15.000 5.000 15.000 13.016 C 15.000 20.085,14.968 21.101,14.728 21.606 C 14.453 22.186,12.748 23.833,12.423 23.833 C 12.326 23.833,12.153 23.983,12.039 24.167 C 11.924 24.350,11.737 24.500,11.622 24.500 C 11.507 24.500,11.227 24.669,10.998 24.876 C 10.167 25.631,8.365 27.000,8.204 27.000 C 8.113 27.000,7.915 27.188,7.765 27.417 C 7.615 27.646,7.403 27.833,7.294 27.833 C 7.092 27.833,6.863 28.025,5.861 29.027 C 4.418 30.470,4.417 30.478,4.417 38.036 C 4.417 45.494,4.291 45.028,6.207 44.686 C 6.872 44.567,7.942 44.405,8.583 44.325 C 10.056 44.143,74.132 44.144,79.750 44.326 C 83.750 44.456,86.305 44.769,86.742 45.183 C 87.268 45.682,88.484 45.344,88.672 44.647 C 89.165 42.818,88.723 31.833,88.157 31.833 C 88.078 31.833,87.871 31.680,87.696 31.494 C 87.447 31.226,86.960 31.098,85.398 30.893 C 84.308 30.749,83.304 30.591,83.167 30.541 C 82.741 30.386,82.517 30.352,78.833 29.885 C 76.862 29.635,75.212 29.379,75.167 29.318 C 75.121 29.256,73.621 29.033,71.833 28.823 C 70.046 28.613,68.546 28.391,68.500 28.329 C 68.454 28.268,66.992 28.046,65.250 27.836 C 63.508 27.626,62.008 27.398,61.917 27.330 C 61.825 27.261,60.025 26.994,57.917 26.735 C 55.808 26.477,54.046 26.218,54.000 26.159 C 53.954 26.100,53.720 26.003,53.481 25.945 C 53.069 25.844,51.833 23.756,51.833 23.159 C 51.833 23.053,51.639 22.579,51.402 22.108 C 51.164 21.636,50.855 20.912,50.715 20.500 C 50.575 20.087,50.406 19.712,50.338 19.667 C 50.271 19.621,50.084 19.171,49.922 18.667 C 49.760 18.162,49.412 17.317,49.147 16.787 C 48.883 16.257,48.667 15.751,48.667 15.662 C 48.667 15.573,48.447 15.032,48.178 14.459 C 47.909 13.886,47.590 13.098,47.470 12.708 C 47.350 12.319,47.201 12.000,47.139 12.000 C 47.078 12.000,46.898 11.606,46.740 11.125 C 46.583 10.644,46.277 9.896,46.060 9.464 C 45.844 9.032,45.667 8.603,45.667 8.512 C 45.667 8.421,45.409 7.799,45.094 7.131 C 44.779 6.463,44.471 5.710,44.409 5.458 L 44.297 5.000 47.393 5.000 C 50.370 5.000,50.495 4.987,50.676 4.649 C 50.891 4.247,50.615 2.425,50.227 1.681 C 50.103 1.444,50.002 1.119,50.001 0.958 C 49.997 -0.064,51.332 -0.001,30.042 0.011 C 19.346 0.016,10.588 0.086,10.386 0.168 M40.439 7.900 C 40.985 8.230,41.373 8.877,41.574 9.792 C 41.640 10.090,41.762 10.333,41.847 10.333 C 41.931 10.333,42.000 10.423,42.000 10.532 C 42.000 10.817,42.853 13.551,43.004 13.750 C 43.074 13.842,43.298 14.517,43.501 15.250 C 43.705 15.983,43.921 16.621,43.981 16.667 C 44.040 16.712,44.262 17.349,44.474 18.081 C 44.686 18.814,44.914 19.451,44.982 19.498 C 45.050 19.545,45.283 20.221,45.500 21.000 C 45.717 21.779,45.948 22.454,46.013 22.500 C 46.077 22.546,46.337 23.352,46.589 24.292 C 46.841 25.231,47.112 26.000,47.190 26.000 C 47.385 26.000,47.371 26.937,47.171 27.294 C 47.082 27.453,46.817 28.403,46.584 29.404 C 46.350 30.406,46.096 31.306,46.018 31.404 C 45.940 31.503,45.703 32.296,45.491 33.167 C 45.278 34.037,45.046 34.790,44.975 34.840 C 44.903 34.889,44.758 35.339,44.652 35.840 C 44.391 37.070,43.950 37.893,43.422 38.134 C 42.799 38.418,28.035 38.418,27.412 38.134 C 26.469 37.705,26.500 38.220,26.500 23.000 C 26.500 7.698,26.465 8.252,27.450 7.863 C 28.686 7.375,39.623 7.406,40.439 7.900 M117.414 30.058 C 117.229 30.164,116.911 30.400,116.707 30.583 C 115.480 31.690,112.262 34.166,112.051 34.166 C 111.942 34.167,111.754 34.305,111.634 34.474 C 111.515 34.642,111.229 34.877,111.000 34.996 C 110.287 35.364,109.167 36.344,109.167 36.600 C 109.167 36.734,109.060 36.885,108.930 36.935 C 108.457 37.116,108.129 38.370,108.040 40.333 C 107.993 41.387,107.907 42.287,107.850 42.333 C 107.793 42.379,107.671 42.639,107.579 42.912 C 107.485 43.190,107.194 43.518,106.914 43.662 C 106.641 43.802,106.376 43.971,106.326 44.038 C 106.276 44.105,105.719 44.347,105.088 44.576 C 104.458 44.804,103.898 45.058,103.846 45.140 C 103.793 45.222,103.281 45.459,102.708 45.667 C 102.135 45.875,101.667 46.095,101.667 46.156 C 101.667 46.216,101.385 46.365,101.042 46.485 C 100.698 46.605,99.555 47.116,98.501 47.620 C 97.447 48.124,96.222 48.680,95.777 48.856 C 95.332 49.031,94.870 49.272,94.750 49.393 C 94.630 49.513,94.112 49.743,93.599 49.904 C 93.086 50.066,92.667 50.254,92.667 50.322 C 92.667 50.391,92.142 50.658,91.500 50.917 C 90.858 51.175,90.333 51.449,90.333 51.526 C 90.333 51.821,89.694 51.649,89.459 51.292 C 88.992 50.581,88.105 49.667,87.881 49.667 C 87.757 49.667,87.614 49.556,87.562 49.420 C 87.510 49.285,87.118 49.003,86.692 48.795 C 86.265 48.587,85.879 48.368,85.833 48.307 C 85.787 48.247,85.289 48.078,84.726 47.932 C 83.485 47.611,9.161 47.518,7.485 47.836 C 6.552 48.013,4.718 48.863,4.398 49.267 C 4.297 49.395,4.143 49.500,4.057 49.500 C 3.447 49.500,1.739 51.999,1.379 53.417 C 1.217 54.058,1.008 54.637,0.917 54.702 C 0.681 54.870,0.691 64.305,0.926 64.464 C 1.023 64.530,1.207 65.028,1.335 65.572 C 1.463 66.116,1.815 66.921,2.117 67.360 C 2.419 67.799,2.667 68.204,2.667 68.259 C 2.667 68.462,4.048 69.640,4.640 69.940 C 4.975 70.110,5.296 70.314,5.353 70.391 C 5.495 70.585,7.635 71.167,8.205 71.167 C 8.459 71.167,8.667 71.242,8.667 71.333 C 8.667 71.444,21.222 71.500,46.000 71.500 C 66.804 71.500,83.333 71.436,83.333 71.356 C 83.333 71.277,83.728 71.166,84.211 71.109 C 85.216 70.991,86.667 70.534,86.667 70.334 C 86.667 70.261,86.959 70.048,87.317 69.861 C 88.086 69.461,89.198 68.319,89.618 67.500 C 89.782 67.179,89.972 66.892,90.039 66.862 C 90.269 66.759,90.809 64.713,90.930 63.485 C 90.996 62.811,91.146 62.163,91.263 62.046 C 91.513 61.797,96.833 61.734,96.833 61.981 C 96.833 62.062,99.342 62.183,102.408 62.251 L 107.983 62.374 108.033 66.346 C 108.089 70.794,108.017 70.556,109.429 70.951 C 109.972 71.104,110.454 71.276,110.500 71.334 C 110.546 71.392,111.333 71.650,112.250 71.907 C 113.167 72.164,113.954 72.422,114.000 72.482 C 114.046 72.541,114.682 72.762,115.415 72.974 C 116.147 73.186,116.784 73.414,116.831 73.482 C 116.878 73.550,117.554 73.781,118.333 73.996 C 119.112 74.211,119.825 74.441,119.917 74.506 C 120.008 74.572,120.646 74.799,121.333 75.010 C 122.021 75.222,122.733 75.483,122.917 75.591 C 123.100 75.698,123.888 75.961,124.667 76.174 C 125.446 76.387,126.121 76.608,126.167 76.665 C 126.273 76.796,128.718 77.500,129.069 77.500 C 129.370 77.500,129.470 73.214,129.186 72.469 C 129.001 71.983,127.957 70.833,127.700 70.833 C 127.594 70.833,127.385 70.646,127.235 70.417 C 127.085 70.188,126.892 70.000,126.807 70.000 C 126.641 70.000,125.802 69.433,125.267 68.958 C 125.085 68.798,124.840 68.667,124.721 68.667 C 124.602 68.667,124.306 68.367,124.064 68.000 C 123.821 67.633,123.570 67.333,123.505 67.333 C 123.390 67.333,122.971 65.742,122.737 64.417 C 122.672 64.050,122.567 63.712,122.503 63.667 C 122.440 63.621,122.217 62.758,122.008 61.750 C 121.799 60.742,121.570 59.842,121.500 59.750 C 121.430 59.658,121.201 58.758,120.992 57.750 C 120.783 56.742,120.549 55.892,120.472 55.861 C 120.396 55.831,120.333 55.690,120.333 55.548 C 120.333 55.132,119.479 51.432,119.341 51.250 C 119.272 51.158,119.045 50.333,118.837 49.417 C 118.629 48.500,118.408 47.712,118.344 47.667 C 118.281 47.621,118.054 46.833,117.840 45.917 C 117.626 45.000,117.402 44.212,117.341 44.167 C 117.281 44.121,117.061 43.446,116.851 42.667 C 116.642 41.887,116.346 40.987,116.195 40.667 C 115.884 40.010,115.801 37.404,116.083 37.202 C 116.175 37.137,116.455 36.652,116.707 36.125 C 116.958 35.598,117.232 35.167,117.316 35.167 C 117.649 35.167,118.032 33.520,118.121 31.708 C 118.219 29.707,118.182 29.619,117.414 30.058 M107.667 53.167 L 107.667 58.668 105.542 58.579 C 102.949 58.471,92.777 58.167,91.745 58.167 L 91.000 58.167 91.001 56.875 C 91.002 55.592,91.465 54.833,92.247 54.833 C 92.326 54.833,92.509 54.733,92.654 54.610 C 92.798 54.487,93.382 54.217,93.950 54.009 C 94.519 53.802,95.006 53.584,95.034 53.524 C 95.105 53.369,96.302 52.833,96.577 52.833 C 96.705 52.833,96.909 52.735,97.030 52.615 C 97.151 52.495,97.681 52.219,98.208 52.001 C 98.735 51.783,99.167 51.544,99.167 51.469 C 99.167 51.395,99.295 51.333,99.452 51.333 C 99.609 51.333,100.340 51.044,101.077 50.691 C 101.814 50.337,102.754 49.908,103.167 49.737 C 103.579 49.566,103.955 49.374,104.002 49.310 C 104.048 49.246,104.461 49.041,104.918 48.855 C 105.376 48.669,106.125 48.327,106.583 48.097 C 107.042 47.866,107.473 47.675,107.542 47.672 C 107.610 47.669,107.667 50.142,107.667 53.167 M16.556 51.993 C 17.258 52.173,17.997 52.473,18.198 52.660 C 18.398 52.847,18.630 53.000,18.713 53.000 C 18.980 53.000,20.667 54.533,20.667 54.775 C 20.667 54.905,20.772 55.051,20.901 55.101 C 21.325 55.263,22.301 57.528,22.427 58.638 C 22.543 59.666,22.245 62.167,22.006 62.167 C 21.944 62.167,21.726 62.535,21.523 62.985 C 21.319 63.436,20.932 64.054,20.662 64.360 C 20.393 64.666,20.171 64.959,20.169 65.010 C 20.159 65.377,17.156 66.991,16.472 66.997 C 16.319 66.999,16.163 67.094,16.125 67.208 C 16.039 67.468,12.385 67.506,12.202 67.249 C 12.137 67.157,11.634 66.933,11.084 66.750 C 10.534 66.567,9.953 66.286,9.792 66.126 C 9.632 65.965,9.434 65.833,9.352 65.833 C 8.779 65.833,6.500 62.705,6.500 61.917 C 6.500 61.794,6.406 61.663,6.292 61.625 C 6.024 61.535,5.993 57.549,6.259 57.369 C 6.355 57.303,6.573 56.875,6.744 56.417 C 7.062 55.561,7.211 55.357,8.500 54.010 C 10.475 51.947,13.456 51.200,16.556 51.993 M80.375 52.082 C 80.810 52.237,81.167 52.424,81.167 52.495 C 81.167 52.567,81.387 52.717,81.656 52.829 C 82.316 53.102,84.074 54.884,84.429 55.640 C 84.587 55.975,84.777 56.290,84.851 56.339 C 85.616 56.842,85.643 62.092,84.883 62.652 C 84.810 62.706,84.585 63.087,84.383 63.500 C 84.182 63.913,83.863 64.360,83.675 64.495 C 83.487 64.630,83.333 64.834,83.333 64.949 C 83.333 65.064,83.127 65.266,82.875 65.398 C 82.623 65.530,82.264 65.776,82.078 65.944 C 81.618 66.360,80.853 66.763,80.252 66.907 C 79.978 66.973,79.699 67.114,79.633 67.222 C 79.477 67.474,75.873 67.493,75.702 67.242 C 75.637 67.146,75.248 66.969,74.837 66.849 C 73.068 66.331,70.333 63.608,70.333 62.364 C 70.333 62.255,70.269 62.167,70.190 62.167 C 69.997 62.167,69.667 60.472,69.667 59.480 C 69.667 58.573,69.969 57.000,70.144 57.000 C 70.208 57.000,70.359 56.665,70.480 56.256 C 70.601 55.847,70.868 55.341,71.074 55.131 C 71.280 54.922,71.581 54.544,71.743 54.292 C 71.905 54.040,72.113 53.833,72.204 53.833 C 72.294 53.833,72.516 53.646,72.696 53.417 C 72.877 53.188,73.117 53.000,73.231 53.000 C 73.344 53.000,73.594 52.854,73.786 52.675 C 73.977 52.497,74.535 52.227,75.025 52.076 C 75.516 51.924,75.992 51.772,76.083 51.736 C 76.512 51.571,79.654 51.824,80.375 52.082 M63.262 59.065 C 65.064 59.934,65.299 64.861,63.583 65.808 C 63.308 65.959,63.030 66.158,62.964 66.250 C 62.798 66.483,29.032 66.480,28.869 66.247 C 28.804 66.153,28.540 65.984,28.283 65.871 C 27.764 65.643,27.333 64.797,27.333 64.005 C 27.333 63.727,27.258 63.500,27.167 63.500 C 27.073 63.500,27.000 63.028,27.000 62.417 C 27.000 61.806,27.073 61.333,27.167 61.333 C 27.258 61.333,27.333 61.148,27.333 60.922 C 27.333 60.235,27.828 59.424,28.472 59.054 C 29.082 58.704,29.128 58.703,45.760 58.685 L 62.438 58.667 63.262 59.065 " stroke="none" fill="#fcd464" fill-rule="evenodd"></path></g></svg>