<svg version="1.1" id="Layer_1" xmlns="http://www.w3.org/2000/svg" xmlns:xlink="http://www.w3.org/1999/xlink" x="0px" y="0px"
	 width="100%" viewBox="0 0 2018 392" enable-background="new 0 0 2018 392" xml:space="preserve">
<path fill="#FFFFFF" opacity="1.000000" stroke="none" 
	d="
M249.000000,1.000000 
	C838.947449,1.000000 1428.894897,1.000000 2018.921143,1.000000 
	C2018.921143,131.602402 2018.921143,262.204865 2018.921143,392.903687 
	C1346.457520,392.903687 673.914978,392.903687 1.186238,392.903687 
	C1.186238,262.333527 1.186238,131.666794 1.186238,1.000000 
	C18.757732,1.000000 36.422913,1.000000 54.395729,1.305138 
	C53.674892,2.716947 52.646431,3.823618 51.466682,5.071198 
	C51.315392,5.212108 51.304478,5.625455 51.036198,5.798654 
	C50.565613,6.980252 50.363304,7.988652 50.100986,9.459864 
	C50.027370,13.255337 50.165970,16.597294 49.963158,19.918404 
	C49.684700,24.478258 51.701283,26.190165 56.177635,26.053749 
	C62.949223,25.847387 69.731743,25.999870 77.000000,25.999870 
	C77.000000,28.391356 77.000000,30.182579 77.000000,31.973801 
	C77.000000,55.305290 76.810234,78.639214 77.109818,101.966858 
	C77.205971,109.453461 73.966278,114.602478 68.422432,118.819878 
	C56.502537,127.887764 44.350941,136.665802 32.713188,146.080429 
	C29.437067,148.730728 26.873266,152.892120 25.330685,156.881622 
	C23.711004,161.070496 23.171484,165.876190 23.097719,170.427536 
	C22.843895,186.088837 22.831041,201.759369 23.069040,217.421173 
	C23.194160,225.654953 24.625021,228.156906 33.807995,226.080704 
	C41.462902,224.349960 49.425488,223.118683 57.249950,223.128616 
	C172.686630,223.275269 288.122925,223.747528 403.559601,223.878052 
	C415.423004,223.891464 426.883789,225.388824 438.349548,228.093582 
	C447.491638,230.250183 447.785065,229.951874 448.994232,220.324554 
	C449.035461,219.996399 448.999908,219.658600 448.999908,219.325287 
	C448.999908,204.826431 449.086609,190.326660 448.933533,175.829422 
	C448.899170,172.577972 448.410675,169.217987 447.462952,166.111893 
	C445.126099,158.452972 438.091553,158.048401 431.881042,157.093719 
	C414.982513,154.496033 398.010223,152.381485 381.097778,149.869446 
	C364.363556,147.383865 347.682129,144.543259 330.949371,142.047226 
	C312.090759,139.234116 293.197906,136.651459 274.326447,133.923523 
	C269.875916,133.280167 266.965485,130.625732 265.254303,126.527313 
	C254.152908,99.938576 243.039047,73.355049 231.929657,46.769650 
	C229.161758,40.145916 226.395325,33.521561 223.166534,25.792278 
	C234.647781,25.792278 244.987991,25.792278 255.651749,25.792278 
	C254.982300,19.958378 254.410782,14.977841 253.879913,9.626958 
	C252.293594,6.801228 250.666611,4.345845 249.024994,1.668058 
	C249.010361,1.445653 249.000000,1.000000 249.000000,1.000000 
M634.998962,351.986298 
	C634.998962,351.986298 635.069885,351.953552 634.790466,351.367218 
	C633.872925,350.874603 632.955444,350.381989 631.730530,349.290253 
	C628.766785,346.192566 625.803101,343.094879 622.916260,339.228912 
	C619.275024,325.110931 615.834900,310.937378 611.951843,296.886230 
	C603.101990,264.861511 594.034851,232.896820 585.014282,200.022461 
	C585.047180,197.359695 585.080139,194.696930 585.578674,191.794601 
	C585.606873,191.155334 585.635071,190.516083 585.748169,189.382217 
	C585.729431,189.048843 585.710632,188.715469 586.221558,188.041458 
	C587.504272,185.709778 588.787048,183.378082 590.010315,181.003235 
	C590.010315,181.003235 590.031677,181.073624 590.484985,180.886932 
	C590.803589,180.686890 590.922668,180.403152 591.145813,179.432358 
	C591.801758,178.299179 592.457764,177.166000 593.696411,175.630463 
	C594.411133,173.100159 595.125793,170.569855 595.963013,167.375015 
	C596.013306,166.927505 596.063599,166.479996 596.665161,165.656021 
	C596.723572,164.783539 596.781921,163.911057 596.955872,162.249542 
	C596.860840,160.421677 596.765747,158.593826 596.690491,156.101044 
	C596.690491,154.818253 596.690491,153.535446 596.690491,152.252655 
	C596.137573,151.935135 595.584656,151.617630 595.031738,151.300110 
	C593.609070,153.101257 592.186401,154.902420 590.772888,156.800232 
	C590.772888,156.800232 590.693237,156.744598 590.035767,156.775696 
	C588.667236,157.835022 587.298645,158.894348 585.996643,159.995743 
	C585.996643,159.995743 585.953430,159.929962 585.352844,160.204330 
	C583.878601,161.454086 582.404358,162.703857 580.996582,163.995773 
	C580.996582,163.995773 580.953430,163.929962 580.352844,164.204330 
	C578.878601,165.454102 577.404358,166.703857 575.996521,167.995926 
	C575.996521,167.995926 575.953430,167.930038 575.344055,168.210815 
	C574.148621,169.372818 572.953247,170.534821 571.775635,171.788956 
	C571.775635,171.788956 571.691345,171.747650 571.006348,171.788651 
	C568.924805,173.424698 566.843262,175.060745 564.767883,176.779541 
	C564.767883,176.779541 564.691223,176.747833 564.001526,176.789978 
	C560.632019,179.180054 557.262512,181.570129 553.319641,184.242508 
	C552.842224,185.150177 552.364746,186.057831 551.278198,187.282837 
	C549.905762,190.520889 548.533386,193.758942 547.037170,197.649109 
	C546.986816,198.088608 546.936462,198.528091 546.331360,199.350235 
	C546.274597,200.232498 546.217896,201.114761 546.041260,202.916092 
	C545.989563,206.933289 545.937866,210.950485 545.315430,215.376801 
	C543.220459,217.915085 541.533081,221.043091 538.928162,222.843811 
	C535.598633,225.145447 531.503906,226.323135 527.782471,228.077652 
	C504.676117,238.971451 481.606567,249.944168 458.435211,260.697632 
	C456.656250,261.523224 454.187622,260.862762 451.739197,260.295624 
	C448.528412,257.183807 445.317657,254.072006 441.779205,250.346573 
	C435.865234,247.860565 429.951233,245.374557 423.477661,242.249268 
	C421.821594,242.166183 420.165558,242.010513 418.509491,242.010361 
	C295.333740,241.999039 172.157959,241.999390 48.982201,242.006683 
	C47.320423,242.006775 45.658657,242.107086 43.208191,242.089615 
	C41.939381,242.393997 40.677349,242.730835 39.400654,242.997437 
	C31.491875,244.648956 24.538321,248.078705 18.302895,254.253769 
	C17.164398,255.824249 16.025902,257.394714 14.303740,259.257477 
	C13.738646,260.147430 13.173551,261.037384 12.313013,262.211639 
	C12.313013,262.211639 12.306522,262.621582 11.758820,262.976135 
	C9.892840,268.649811 8.026860,274.323486 6.042614,280.819427 
	C5.990425,282.202179 5.938235,283.584900 5.331198,285.350311 
	C5.274472,286.232544 5.217746,287.114807 5.040735,288.927673 
	C5.027172,297.558502 4.950672,306.190063 5.052989,314.819519 
	C5.073530,316.551910 5.774035,318.276215 6.048205,320.664734 
	C6.085809,321.108246 6.123413,321.551788 6.044454,322.748169 
	C6.416574,324.167358 6.788695,325.586517 7.046371,327.773193 
	C7.997515,330.531586 8.948659,333.289948 10.010612,336.758575 
	C12.072459,340.067291 13.553555,344.020630 16.337002,346.528412 
	C20.178240,349.989258 25.001972,352.359619 29.722517,355.891785 
	C32.479813,356.874329 35.237106,357.856873 38.712040,359.227539 
	C42.919067,359.818359 47.125706,360.922150 51.333187,360.925385 
	C171.920380,361.017944 292.507751,361.049988 413.094696,360.865295 
	C419.731201,360.855133 426.364716,358.894379 433.666870,357.719910 
	C435.188995,356.580292 436.711121,355.440674 438.173035,354.179199 
	C438.173035,354.179199 438.286835,354.253510 438.948456,354.225922 
	C439.709534,353.584900 440.470642,352.943909 441.157623,352.175415 
	C441.157623,352.175415 441.281494,352.255341 441.939362,352.233246 
	C442.995209,351.502106 444.051056,350.770966 445.706085,349.738373 
	C448.170502,346.508759 450.634918,343.279144 453.676575,339.658569 
	C455.397461,335.105591 457.118347,330.552612 458.957336,325.212402 
	C459.009308,324.152802 459.061310,323.093231 459.626251,321.724701 
	C459.697113,321.149689 459.768005,320.574707 459.957520,319.143341 
	C459.299591,314.445526 461.103668,312.700806 466.032471,312.905701 
	C480.433838,313.504303 494.854034,313.639496 509.265503,314.008667 
	C520.685791,314.301208 532.104919,314.650543 543.522034,315.046173 
	C544.411743,315.077026 545.281860,315.671661 546.048218,316.664764 
	C546.085876,317.108276 546.123474,317.551819 546.040710,318.926117 
	C546.027100,329.221497 545.960022,339.517365 546.052307,349.811798 
	C546.067871,351.544159 546.772156,353.270416 547.316345,355.685516 
	C548.735962,356.460602 550.079590,357.455322 551.586975,357.976929 
	C567.092651,363.342285 582.605530,368.688568 598.154846,373.925842 
	C615.080933,379.626770 632.047729,385.206635 649.611816,391.053528 
	C650.221436,391.095154 650.830994,391.136810 651.736206,391.644287 
	C652.104492,391.431366 652.472717,391.218445 652.959778,390.074463 
	C652.973206,386.593842 653.141357,383.105194 652.960388,379.634705 
	C652.740356,375.414246 652.226074,371.209137 651.928528,366.323608 
	C650.632324,364.846802 649.336182,363.369965 647.737915,361.293945 
	C644.527588,358.849335 641.317261,356.404755 637.808533,353.379395 
	C636.886658,352.893494 635.964783,352.407623 634.998962,351.986298 
z"/>
<path fill="#FED363" opacity="1.000000" stroke="none" 
	d="
M253.839264,9.997301 
	C254.410782,14.977841 254.982300,19.958378 255.651749,25.792278 
	C244.987991,25.792278 234.647781,25.792278 223.166534,25.792278 
	C226.395325,33.521561 229.161758,40.145916 231.929657,46.769650 
	C243.039047,73.355049 254.152908,99.938576 265.254303,126.527313 
	C266.965485,130.625732 269.875916,133.280167 274.326447,133.923523 
	C293.197906,136.651459 312.090759,139.234116 330.949371,142.047226 
	C347.682129,144.543259 364.363556,147.383865 381.097778,149.869446 
	C398.010223,152.381485 414.982513,154.496033 431.881042,157.093719 
	C438.091553,158.048401 445.126099,158.452972 447.462952,166.111893 
	C448.410675,169.217987 448.899170,172.577972 448.933533,175.829422 
	C449.086609,190.326660 448.999908,204.826431 448.999908,219.325287 
	C448.999908,219.658600 449.035461,219.996399 448.994232,220.324554 
	C447.785065,229.951874 447.491638,230.250183 438.349548,228.093582 
	C426.883789,225.388824 415.423004,223.891464 403.559601,223.878052 
	C288.122925,223.747528 172.686630,223.275269 57.249950,223.128616 
	C49.425488,223.118683 41.462902,224.349960 33.807995,226.080704 
	C24.625021,228.156906 23.194160,225.654953 23.069040,217.421173 
	C22.831041,201.759369 22.843895,186.088837 23.097719,170.427536 
	C23.171484,165.876190 23.711004,161.070496 25.330685,156.881622 
	C26.873266,152.892120 29.437067,148.730728 32.713188,146.080429 
	C44.350941,136.665802 56.502537,127.887764 68.422432,118.819878 
	C73.966278,114.602478 77.205971,109.453461 77.109818,101.966858 
	C76.810234,78.639214 77.000000,55.305290 77.000000,31.973801 
	C77.000000,30.182579 77.000000,28.391356 77.000000,25.999870 
	C69.731743,25.999870 62.949223,25.847387 56.177635,26.053749 
	C51.701283,26.190165 49.684700,24.478258 49.963158,19.918404 
	C50.165970,16.597294 50.027370,13.255337 50.437904,9.415300 
	C52.670654,8.054038 53.844200,7.105391 51.304478,5.625455 
	C51.304478,5.625455 51.315392,5.212108 51.901836,5.097702 
	C55.667397,5.426286 56.250519,3.580616 56.000000,1.000000 
	C120.020897,1.000000 184.041794,1.000000 248.531342,1.000000 
	C249.000000,1.000000 249.010361,1.445653 249.016953,2.051510 
	C250.628784,5.104010 252.234024,7.550653 253.839264,9.997301 
M230.504745,105.006607 
	C224.302994,86.963776 218.063354,68.933838 211.914215,50.873096 
	C208.418335,40.605259 205.599487,38.068729 194.727509,38.083031 
	C177.962143,38.105087 161.192764,38.517124 144.434616,39.058243 
	C136.635910,39.310062 134.002197,42.492695 134.001602,50.357098 
	C133.998276,94.825439 133.997818,139.293793 134.001984,183.762131 
	C134.002747,191.770691 137.169922,194.994156 145.052261,194.997101 
	C167.369705,195.005432 189.687164,195.000107 212.004608,194.999939 
	C221.401031,194.999863 223.356171,193.691696 226.120087,184.657700 
	C230.395187,170.684433 234.488159,156.655457 238.667938,142.652985 
	C240.118057,137.795044 240.247360,133.192398 238.264359,128.222443 
	C235.343979,120.903114 233.291245,113.237602 230.504745,105.006607 
z"/>
<path fill="#FED363" opacity="1.000000" stroke="none" 
	d="
M55.750000,1.000000 
	C56.250519,3.580616 55.667397,5.426286 52.053123,4.956793 
	C52.646431,3.823618 53.674892,2.716947 54.851677,1.305138 
	C55.000000,1.000000 55.500000,1.000000 55.750000,1.000000 
z"/>
<path fill="#FED363" opacity="1.000000" stroke="none" 
	d="
M43.996887,242.160629 
	C45.658657,242.107086 47.320423,242.006775 48.982201,242.006683 
	C172.157959,241.999390 295.333740,241.999039 418.509491,242.010361 
	C420.165558,242.010513 421.821594,242.166183 423.803711,242.939117 
	C430.122162,246.072708 436.114532,248.516434 442.106903,250.960175 
	C445.317657,254.072006 448.528412,257.183807 451.889313,261.007935 
	C452.731171,262.468170 453.489105,263.904572 454.103210,263.845490 
	C456.848022,263.581573 459.774902,263.382812 462.231293,262.268402 
	C472.225739,257.734222 482.032349,252.788361 491.980865,248.150055 
	C508.093719,240.637741 524.372925,233.469482 540.312622,225.609924 
	C543.313354,224.130341 545.107971,220.138641 547.289490,217.181061 
	C547.477051,216.926712 546.384155,215.727814 545.886108,214.967682 
	C545.937866,210.950485 545.989563,206.933289 546.421387,202.416168 
	C547.409363,201.313782 548.017212,200.711319 548.625061,200.108856 
	C548.045410,199.728424 547.465759,199.347992 546.886108,198.967590 
	C546.936462,198.528091 546.986816,198.088608 547.437622,197.277328 
	C549.768677,194.012100 551.706482,191.123169 553.554321,188.177795 
	C553.579346,188.137985 552.468140,187.385376 551.887268,186.965485 
	C552.364746,186.057831 552.842224,185.150177 554.020874,184.113678 
	C559.486877,183.661362 564.257385,180.198288 564.691223,176.747833 
	C564.691223,176.747833 564.767883,176.779541 565.169739,176.839874 
	C568.596558,176.352615 571.988403,176.240799 571.691345,171.747650 
	C571.691345,171.747650 571.775635,171.788956 572.182861,171.845001 
	C575.940918,172.465897 576.180420,170.395538 575.953430,167.930038 
	C575.953430,167.930038 575.996521,167.995926 576.384155,167.989792 
	C579.904968,168.426559 581.525879,167.309525 580.953430,163.929962 
	C580.953430,163.929962 580.996582,163.995773 581.384216,163.989716 
	C584.904968,164.426559 586.525879,163.309525 585.953430,159.929962 
	C585.953430,159.929962 585.996643,159.995743 586.382019,159.989746 
	C588.919495,159.926315 591.626770,160.541824 590.693237,156.744598 
	C590.693237,156.744598 590.772888,156.800232 591.253540,156.857056 
	C593.379639,156.864578 595.025146,156.815277 596.670654,156.765976 
	C596.765747,158.593826 596.860840,160.421677 596.622437,162.777924 
	C595.684509,163.955536 595.080017,164.604767 594.475464,165.253983 
	C595.021606,165.513489 595.567749,165.772980 596.113892,166.032471 
	C596.063599,166.479996 596.013306,166.927505 595.591797,167.855713 
	C593.531128,169.755676 591.841675,171.174957 590.152161,172.594238 
	C591.139343,173.740417 592.126526,174.886597 593.113770,176.032806 
	C592.457764,177.166000 591.801758,178.299179 590.801147,179.855286 
	C590.224792,180.495239 590.083191,180.760376 590.031677,181.073624 
	C590.031677,181.073624 590.010315,181.003235 589.617432,181.009720 
	C587.305420,181.731415 585.386414,182.446625 583.467346,183.161835 
	C584.208862,184.901932 584.950378,186.642014 585.691895,188.382095 
	C585.710632,188.715469 585.729431,189.048843 585.338379,189.663086 
	C584.462219,190.251770 583.995789,190.559555 583.529358,190.867340 
	C584.057251,191.256287 584.585205,191.645233 585.113098,192.034164 
	C585.080139,194.696930 585.047180,197.359695 584.833130,200.759827 
	C584.413086,203.073456 583.584229,204.845490 584.031738,206.194000 
	C586.819153,214.594635 590.222961,222.800064 592.791870,231.261642 
	C596.474915,243.393631 599.883972,255.623657 602.933350,267.929932 
	C608.492493,290.365265 613.645691,312.901062 619.166504,335.346222 
	C619.595947,337.092072 621.578613,338.455841 622.839355,339.997192 
	C625.803101,343.094879 628.766785,346.192566 631.920959,349.949524 
	C633.097534,351.057068 634.083740,351.505310 635.069885,351.953552 
	C635.069885,351.953552 634.998962,351.986298 635.059021,352.313782 
	C636.115051,353.080902 637.110962,353.520538 638.106934,353.960175 
	C641.317261,356.404755 644.527588,358.849335 647.879761,361.963348 
	C649.294189,364.087616 650.566650,365.542511 651.839172,366.997375 
	C652.226074,371.209137 652.740356,375.414246 652.960388,379.634705 
	C653.141357,383.105194 652.973206,386.593842 652.549927,390.578674 
	C651.906921,391.114746 651.673767,391.146606 651.440613,391.178467 
	C650.830994,391.136810 650.221436,391.095154 649.256104,390.600952 
	C647.170471,389.029907 645.577026,387.527557 643.688232,386.855743 
	C632.163147,382.756134 620.576050,378.830383 609.000000,374.874817 
	C590.822632,368.663574 572.650574,362.436066 554.439758,356.324310 
	C552.125061,355.547455 549.590759,355.425049 547.158203,354.999451 
	C546.772156,353.270416 546.067871,351.544159 546.052307,349.811798 
	C545.960022,339.517365 546.027100,329.221497 546.380127,318.417236 
	C547.013000,317.591309 547.306396,317.274292 547.599792,316.957275 
	C547.120239,316.639587 546.640686,316.321899 546.161072,316.004211 
	C545.281860,315.671661 544.411743,315.077026 543.522034,315.046173 
	C532.104919,314.650543 520.685791,314.301208 509.265503,314.008667 
	C494.854034,313.639496 480.433838,313.504303 466.032471,312.905701 
	C461.103668,312.700806 459.299591,314.445526 459.572632,319.577881 
	C458.610291,320.412079 458.032837,320.811768 457.455383,321.211487 
	C458.008026,321.485535 458.560638,321.759583 459.113281,322.033630 
	C459.061310,323.093231 459.009308,324.152802 458.542480,325.616882 
	C456.113098,330.172699 454.068329,334.310211 452.146759,338.504181 
	C452.006805,338.809692 452.760864,339.524811 453.099304,340.049500 
	C450.634918,343.279144 448.170502,346.508759 445.011780,349.877533 
	C443.305481,350.762909 442.293488,351.509094 441.281494,352.255310 
	C441.281494,352.255341 441.157623,352.175415 440.812469,352.140808 
	C439.740479,352.821991 439.013672,353.537750 438.286835,354.253510 
	C438.286835,354.253510 438.173035,354.179199 437.800049,354.138367 
	C434.578918,353.722748 432.839172,354.658630 432.999603,357.841553 
	C426.364716,358.894379 419.731201,360.855133 413.094696,360.865295 
	C292.507751,361.049988 171.920380,361.017944 51.333187,360.925385 
	C47.125706,360.922150 42.919067,359.818359 38.280914,358.690430 
	C35.034817,357.167877 32.219845,356.182465 29.404877,355.197052 
	C25.001972,352.359619 20.178240,349.989258 16.337002,346.528412 
	C13.553555,344.020630 12.072459,340.067291 10.224981,336.194092 
	C9.346506,332.755005 8.253662,329.880341 7.160818,327.005707 
	C6.788695,325.586517 6.416574,324.167358 6.381973,322.328217 
	C7.012943,321.591248 7.306392,321.274261 7.599839,320.957245 
	C7.120231,320.639587 6.640625,320.321930 6.161023,320.004242 
	C5.774035,318.276215 5.073530,316.551910 5.052989,314.819519 
	C4.950672,306.190063 5.027172,297.558502 5.421097,288.421997 
	C6.409364,287.313843 7.017268,286.711365 7.625176,286.108887 
	C7.045471,285.728455 6.465761,285.348053 5.886048,284.967651 
	C5.938235,283.584900 5.990425,282.202179 6.422423,280.368591 
	C7.342534,279.577820 8.194715,279.355652 8.374460,278.879608 
	C10.014099,274.537231 11.628677,270.179504 13.015689,265.752655 
	C13.292334,264.869720 12.568839,263.673401 12.306522,262.621582 
	C12.306522,262.621582 12.313013,262.211639 12.859076,262.095764 
	C14.466758,261.416290 15.528378,260.852692 16.589996,260.289093 
	C16.022465,259.847778 15.454934,259.406494 14.887404,258.965179 
	C16.025902,257.394714 17.164398,255.824249 19.012119,254.119308 
	C20.713142,253.938828 21.852568,254.196259 22.672670,253.797302 
	C27.807993,251.299011 32.904812,248.715668 37.944153,246.028763 
	C40.050423,244.905731 41.984516,243.459778 43.996887,242.160629 
M370.458282,266.111938 
	C369.652130,267.110229 368.846008,268.108521 367.869965,269.540527 
	C367.685211,269.813263 367.430878,269.979706 366.302979,270.017059 
	C365.200562,271.046539 364.098114,272.075989 362.776550,273.721954 
	C361.220032,275.827911 359.663513,277.933868 357.245178,280.014801 
	C351.598846,280.367615 350.224457,284.025909 353.016937,291.701569 
	C352.957581,292.135590 352.898254,292.569611 352.269043,293.084808 
	C352.213440,293.738739 352.157837,294.392670 352.025818,295.963318 
	C352.050842,299.959686 352.075836,303.956085 351.531799,308.389709 
	C352.634338,311.258118 353.736847,314.126495 355.167145,317.621918 
	C358.769073,325.178314 364.700653,330.710632 371.082886,336.618530 
	C375.291992,338.746124 379.383118,341.184998 383.768646,342.847168 
	C385.507477,343.506195 387.899841,342.441010 390.847443,342.042389 
	C392.566742,342.081970 394.286072,342.121552 396.163513,342.863770 
	C400.647217,342.455750 405.512726,342.972168 409.486938,341.330627 
	C412.372131,340.138916 417.736053,339.573914 416.996002,333.996460 
	C416.996002,333.996460 416.930176,333.953491 417.740112,333.983368 
	C420.655518,334.036743 423.585175,334.156708 423.636230,329.949310 
	C423.642731,329.410919 424.051910,328.620209 424.503815,328.382874 
	C431.834961,324.532410 432.368134,316.901428 434.578339,310.230927 
	C434.648071,310.020538 433.477356,309.399109 432.970642,308.054962 
	C433.034058,304.368408 433.097473,300.681854 433.811523,296.862671 
	C432.927856,293.910156 432.044220,290.957672 430.830170,287.374359 
	C425.664032,276.046509 417.237457,268.018768 405.875580,262.088654 
	C403.718781,261.459808 401.561951,260.830963 398.729980,260.575134 
	C391.831207,261.421143 384.932465,262.267120 377.868530,262.326996 
	C375.939667,261.976013 374.010803,261.625000 372.081970,261.274017 
	C371.823334,262.933868 371.564728,264.593750 371.222015,266.212219 
	C371.222015,266.212219 371.239532,266.304291 370.458282,266.111938 
M48.458271,267.112000 
	C47.652145,268.110260 46.846020,269.108521 45.745899,270.697601 
	C42.866268,273.811676 39.986637,276.925751 36.248581,280.014832 
	C34.557026,280.694763 31.562189,281.156525 31.405323,282.093445 
	C30.808033,285.660858 31.126713,289.381683 31.025835,293.971588 
	C31.051081,299.298706 31.076326,304.625854 30.576511,310.341248 
	C31.330765,311.892578 32.085018,313.443878 33.169872,315.625854 
	C36.789642,324.047760 43.121075,330.212341 50.103077,336.595612 
	C54.996792,342.717926 62.253662,342.588013 69.032593,343.663483 
	C69.267914,343.700836 69.670258,342.685547 70.847527,342.042419 
	C72.566788,342.082001 74.286049,342.121582 76.158287,342.855927 
	C81.701553,341.977112 87.372833,341.536682 92.717010,339.976105 
	C94.529808,339.446716 98.960579,339.173279 97.768341,334.782227 
	C97.768341,334.782227 97.757729,334.695984 98.587723,334.897888 
	C101.981415,335.474243 102.163971,333.346466 102.130020,330.459503 
	C102.314796,330.186798 102.569138,330.020325 103.680443,329.983704 
	C105.094627,329.360748 106.919220,329.103485 107.854515,328.053833 
	C112.869759,322.425323 114.992325,315.417297 116.589149,308.240295 
	C116.652168,307.957092 115.481010,307.399231 114.970184,306.087250 
	C115.033798,303.723419 115.097412,301.359589 115.720200,298.908386 
	C116.013458,298.591217 116.306725,298.274017 116.599991,297.956848 
	C116.120331,297.639313 115.640671,297.321777 114.900085,296.313049 
	C114.728889,295.609863 114.557701,294.906708 115.062416,293.911652 
	C114.428520,292.276062 113.794624,290.640442 112.828918,288.372437 
	C108.053703,277.115631 99.866615,269.173431 88.847176,263.144684 
	C86.267067,260.345703 83.105225,259.411682 78.731567,260.574493 
	C71.832039,261.420837 64.932503,262.267212 57.916225,262.391968 
	C56.317047,259.520721 54.186829,259.982269 51.639194,261.105774 
	C48.597984,262.446960 48.741482,264.699005 49.227707,267.217804 
	C49.227707,267.217804 49.239552,267.304352 48.458271,267.112000 
M472.348511,273.963562 
	C471.909973,274.013550 471.471436,274.063568 470.925964,273.411377 
	C469.178070,272.989899 467.318878,271.968811 465.704773,272.268311 
	C462.025482,272.951050 461.661194,275.953217 461.670929,279.780518 
	C458.791138,284.792175 459.517639,289.960144 461.091644,295.720154 
	C461.408813,296.013367 461.725983,296.306610 462.043121,296.599854 
	C462.360657,296.120239 462.678192,295.640656 463.919281,295.041168 
	C468.625519,295.323822 473.331757,295.606445 478.096436,296.565735 
	C479.062714,296.430817 480.028961,296.295868 481.926056,296.040710 
	C485.083618,296.027130 488.245514,295.902008 491.397736,296.025146 
	C496.614441,296.228943 501.824890,296.592712 507.096436,297.565735 
	C508.062714,297.430817 509.028961,297.295898 510.926056,297.040741 
	C514.083618,297.027161 517.245483,296.902008 520.397705,297.025146 
	C525.614380,297.228943 530.824890,297.592712 536.096497,298.565735 
	C537.062744,298.430817 538.028931,298.295898 539.792236,298.043091 
	C540.863342,298.082428 541.934448,298.121765 543.143311,298.811920 
	C544.237671,298.990570 545.332092,299.169220 546.426453,299.347870 
	C545.915161,298.884552 545.403870,298.421234 544.973145,297.029083 
	C545.035889,279.017822 545.098633,261.006561 545.804749,242.870758 
	C545.444214,241.624054 545.464539,239.679092 544.662659,239.241730 
	C538.553711,235.910065 533.576050,238.822601 532.348999,245.963486 
	C531.910461,246.013412 531.471985,246.063339 530.879944,245.347214 
	C524.881470,242.013245 518.048767,245.988998 517.349121,252.963501 
	C516.910583,253.013397 516.472107,253.063293 515.873779,252.337051 
	C509.551971,248.873138 503.049011,252.663834 502.348816,259.963501 
	C501.910431,260.013367 501.472076,260.063232 500.874207,259.337891 
	C494.727417,255.965881 488.049835,259.857819 487.348511,266.963593 
	C486.909973,267.013580 486.471405,267.063599 485.926208,266.412445 
	C484.147766,266.003967 481.986450,264.750305 480.664368,265.349243 
	C477.040039,266.991058 471.790802,267.677032 472.348511,273.963562 
M328.000000,319.339081 
	C328.000000,317.506195 328.006104,315.673248 327.999023,313.840393 
	C327.953674,302.109619 322.824951,296.784515 311.290192,296.878357 
	C272.136078,297.196838 232.977814,296.999969 193.821136,297.000000 
	C179.491455,297.000000 165.161667,296.965790 150.832169,297.016235 
	C144.683136,297.037872 139.124710,300.804718 138.169571,306.059448 
	C137.377106,310.419342 136.884705,314.944122 137.097717,319.355347 
	C137.689621,331.612671 142.413254,336.911957 153.203217,336.938995 
	C205.689484,337.070496 258.176483,337.077423 310.662720,336.939331 
	C322.789337,336.907440 327.730774,331.797882 328.000000,319.339081 
z"/>
<path fill="#FED363" opacity="1.000000" stroke="none" 
	d="
M545.600769,215.172241 
	C546.384155,215.727814 547.477051,216.926712 547.289490,217.181061 
	C545.107971,220.138641 543.313354,224.130341 540.312622,225.609924 
	C524.372925,233.469482 508.093719,240.637741 491.980865,248.150055 
	C482.032349,252.788361 472.225739,257.734222 462.231293,262.268402 
	C459.774902,263.382812 456.848022,263.581573 454.103210,263.845490 
	C453.489105,263.904572 452.731171,262.468170 452.039490,261.306641 
	C454.187622,260.862762 456.656250,261.523224 458.435211,260.697632 
	C481.606567,249.944168 504.676117,238.971451 527.782471,228.077652 
	C531.503906,226.323135 535.598633,225.145447 538.928162,222.843811 
	C541.533081,221.043091 543.220459,217.915085 545.600769,215.172241 
z"/>
<path fill="#FED363" opacity="1.000000" stroke="none" 
	d="
M622.877808,339.613037 
	C621.578613,338.455841 619.595947,337.092072 619.166504,335.346222 
	C613.645691,312.901062 608.492493,290.365265 602.933350,267.929932 
	C599.883972,255.623657 596.474915,243.393631 592.791870,231.261642 
	C590.222961,222.800064 586.819153,214.594635 584.031738,206.194000 
	C583.584229,204.845490 584.413086,203.073456 584.854004,201.202484 
	C594.034851,232.896820 603.101990,264.861511 611.951843,296.886230 
	C615.834900,310.937378 619.275024,325.110931 622.877808,339.613037 
z"/>
<path fill="#FED363" opacity="1.000000" stroke="none" 
	d="
M547.237305,355.342468 
	C549.590759,355.425049 552.125061,355.547455 554.439758,356.324310 
	C572.650574,362.436066 590.822632,368.663574 609.000000,374.874817 
	C620.576050,378.830383 632.163147,382.756134 643.688232,386.855743 
	C645.577026,387.527557 647.170471,389.029907 648.948608,390.493866 
	C632.047729,385.206635 615.080933,379.626770 598.154846,373.925842 
	C582.605530,368.688568 567.092651,363.342285 551.586975,357.976929 
	C550.079590,357.455322 548.735962,356.460602 547.237305,355.342468 
z"/>
<path fill="#FED363" opacity="1.000000" stroke="none" 
	d="
M43.602539,242.125122 
	C41.984516,243.459778 40.050423,244.905731 37.944153,246.028763 
	C32.904812,248.715668 27.807993,251.299011 22.672670,253.797302 
	C21.852568,254.196259 20.713142,253.938828 19.307175,253.972534 
	C24.538321,248.078705 31.491875,244.648956 39.400654,242.997437 
	C40.677349,242.730835 41.939381,242.393997 43.602539,242.125122 
z"/>
<path fill="#FED363" opacity="1.000000" stroke="none" 
	d="
M12.032671,262.798859 
	C12.568839,263.673401 13.292334,264.869720 13.015689,265.752655 
	C11.628677,270.179504 10.014099,274.537231 8.374460,278.879608 
	C8.194715,279.355652 7.342534,279.577820 6.481557,279.957458 
	C8.026860,274.323486 9.892840,268.649811 12.032671,262.798859 
z"/>
<path fill="#FED363" opacity="1.000000" stroke="none" 
	d="
M441.943054,250.653381 
	C436.114532,248.516434 430.122162,246.072708 424.083527,243.258759 
	C429.951233,245.374557 435.865234,247.860565 441.943054,250.653381 
z"/>
<path fill="#FED363" opacity="1.000000" stroke="none" 
	d="
M453.387939,339.854034 
	C452.760864,339.524811 452.006805,338.809692 452.146759,338.504181 
	C454.068329,334.310211 456.113098,330.172699 458.483429,326.010498 
	C457.118347,330.552612 455.397461,335.105591 453.387939,339.854034 
z"/>
<path fill="#FED363" opacity="1.000000" stroke="none" 
	d="
M585.956726,188.211777 
	C584.950378,186.642014 584.208862,184.901932 583.467346,183.161835 
	C585.386414,182.446625 587.305420,181.731415 589.647156,181.031296 
	C588.787048,183.378082 587.504272,185.709778 585.956726,188.211777 
z"/>
<path fill="#FED363" opacity="1.000000" stroke="none" 
	d="
M564.346375,176.768906 
	C564.257385,180.198288 559.486877,183.661362 554.307617,183.972534 
	C557.262512,181.570129 560.632019,179.180054 564.346375,176.768906 
z"/>
<path fill="#FED363" opacity="1.000000" stroke="none" 
	d="
M593.405029,175.831635 
	C592.126526,174.886597 591.139343,173.740417 590.152161,172.594238 
	C591.841675,171.174957 593.531128,169.755676 595.530518,168.187973 
	C595.125793,170.569855 594.411133,173.100159 593.405029,175.831635 
z"/>
<path fill="#FED363" opacity="1.000000" stroke="none" 
	d="
M551.582764,187.124146 
	C552.468140,187.385376 553.579346,188.137985 553.554321,188.177795 
	C551.706482,191.123169 549.768677,194.012100 547.499512,196.951263 
	C548.533386,193.758942 549.905762,190.520889 551.582764,187.124146 
z"/>
<path fill="#FED363" opacity="1.000000" stroke="none" 
	d="
M253.879929,9.626954 
	C252.234024,7.550653 250.628784,5.104010 249.031586,2.273914 
	C250.666611,4.345845 252.293594,6.801228 253.879929,9.626954 
z"/>
<path fill="#FED363" opacity="1.000000" stroke="none" 
	d="
M571.348877,171.768158 
	C571.988403,176.240799 568.596558,176.352615 565.166626,176.798492 
	C566.843262,175.060745 568.924805,173.424698 571.348877,171.768158 
z"/>
<path fill="#FED363" opacity="1.000000" stroke="none" 
	d="
M596.680542,156.433502 
	C595.025146,156.815277 593.379639,156.864578 591.248901,156.808731 
	C592.186401,154.902420 593.609070,153.101257 595.031738,151.300110 
	C595.584656,151.617630 596.137573,151.935135 596.690491,152.252655 
	C596.690491,153.535446 596.690491,154.818253 596.680542,156.433502 
z"/>
<path fill="#FED363" opacity="1.000000" stroke="none" 
	d="
M7.103595,327.389465 
	C8.253662,329.880341 9.346506,332.755005 10.169576,335.838989 
	C8.948659,333.289948 7.997515,330.531586 7.103595,327.389465 
z"/>
<path fill="#FED363" opacity="1.000000" stroke="none" 
	d="
M29.563694,355.544434 
	C32.219845,356.182465 35.034817,357.167877 37.922096,358.496338 
	C35.237106,357.856873 32.479813,356.874329 29.563694,355.544434 
z"/>
<path fill="#FED363" opacity="1.000000" stroke="none" 
	d="
M433.333252,357.780731 
	C432.839172,354.658630 434.578918,353.722748 437.830139,354.199310 
	C436.711121,355.440674 435.188995,356.580292 433.333252,357.780731 
z"/>
<path fill="#FED363" opacity="1.000000" stroke="none" 
	d="
M580.653137,164.067139 
	C581.525879,167.309525 579.904968,168.426559 576.350952,167.968628 
	C577.404358,166.703857 578.878601,165.454102 580.653137,164.067139 
z"/>
<path fill="#FED363" opacity="1.000000" stroke="none" 
	d="
M585.653137,160.067139 
	C586.525879,163.309525 584.904968,164.426559 581.350952,163.968628 
	C582.404358,162.703857 583.878601,161.454086 585.653137,160.067139 
z"/>
<path fill="#FED363" opacity="1.000000" stroke="none" 
	d="
M575.648743,168.070435 
	C576.180420,170.395538 575.940918,172.465897 572.173950,171.798935 
	C572.953247,170.534821 574.148621,169.372818 575.648743,168.070435 
z"/>
<path fill="#FED363" opacity="1.000000" stroke="none" 
	d="
M590.364502,156.760147 
	C591.626770,160.541824 588.919495,159.926315 586.348755,159.968704 
	C587.298645,158.894348 588.667236,157.835022 590.364502,156.760147 
z"/>
<path fill="#FED363" opacity="1.000000" stroke="none" 
	d="
M651.883850,366.660492 
	C650.566650,365.542511 649.294189,364.087616 648.030823,362.262939 
	C649.336182,363.369965 650.632324,364.846802 651.883850,366.660492 
z"/>
<path fill="#FED363" opacity="1.000000" stroke="none" 
	d="
M14.595572,259.111328 
	C15.454934,259.406494 16.022465,259.847778 16.589996,260.289093 
	C15.528378,260.852692 14.466758,261.416290 13.006798,261.953613 
	C13.173551,261.037384 13.738646,260.147430 14.595572,259.111328 
z"/>
<path fill="#FED363" opacity="1.000000" stroke="none" 
	d="
M51.036198,5.798654 
	C53.844200,7.105391 52.670654,8.054038 50.497910,8.952490 
	C50.363304,7.988652 50.565613,6.980252 51.036198,5.798654 
z"/>
<path fill="#FED363" opacity="1.000000" stroke="none" 
	d="
M546.608765,199.158905 
	C547.465759,199.347992 548.045410,199.728424 548.625061,200.108856 
	C548.017212,200.711319 547.409363,201.313782 546.481323,201.956635 
	C546.217896,201.114761 546.274597,200.232498 546.608765,199.158905 
z"/>
<path fill="#FED363" opacity="1.000000" stroke="none" 
	d="
M5.608624,285.158997 
	C6.465761,285.348053 7.045471,285.728455 7.625176,286.108887 
	C7.017268,286.711365 6.409364,287.313843 5.481240,287.956665 
	C5.217746,287.114807 5.274472,286.232544 5.608624,285.158997 
z"/>
<path fill="#FED363" opacity="1.000000" stroke="none" 
	d="
M596.389526,165.844238 
	C595.567749,165.772980 595.021606,165.513489 594.475464,165.253983 
	C595.080017,164.604767 595.684509,163.955536 596.564697,163.172440 
	C596.781921,163.911057 596.723572,164.783539 596.389526,165.844238 
z"/>
<path fill="#FED363" opacity="1.000000" stroke="none" 
	d="
M441.610413,352.244263 
	C442.293488,351.509094 443.305481,350.762909 444.712189,350.028259 
	C444.051056,350.770966 442.995209,351.502106 441.610413,352.244263 
z"/>
<path fill="#FED363" opacity="1.000000" stroke="none" 
	d="
M585.345886,191.914383 
	C584.585205,191.645233 584.057251,191.256287 583.529358,190.867340 
	C583.995789,190.559555 584.462219,190.251770 585.295959,189.910400 
	C585.635071,190.516083 585.606873,191.155334 585.345886,191.914383 
z"/>
<path fill="#FED363" opacity="1.000000" stroke="none" 
	d="
M438.617645,354.239716 
	C439.013672,353.537750 439.740479,352.821991 440.849548,352.204559 
	C440.470642,352.943909 439.709534,353.584900 438.617645,354.239716 
z"/>
<path fill="#FED363" opacity="1.000000" stroke="none" 
	d="
M459.369751,321.879150 
	C458.560638,321.759583 458.008026,321.485535 457.455383,321.211487 
	C458.032837,320.811768 458.610291,320.412079 459.513306,320.006042 
	C459.768005,320.574707 459.697113,321.149689 459.369751,321.879150 
z"/>
<path fill="#FED363" opacity="1.000000" stroke="none" 
	d="
M634.930176,351.660400 
	C634.083740,351.505310 633.097534,351.057068 632.074646,350.249084 
	C632.955444,350.381989 633.872925,350.874603 634.930176,351.660400 
z"/>
<path fill="#FED363" opacity="1.000000" stroke="none" 
	d="
M637.957764,353.669800 
	C637.110962,353.520538 636.115051,353.080902 635.080994,352.281494 
	C635.964783,352.407623 636.886658,352.893494 637.957764,353.669800 
z"/>
<path fill="#FED363" opacity="1.000000" stroke="none" 
	d="
M6.104611,320.334473 
	C6.640625,320.321930 7.120231,320.639587 7.599839,320.957245 
	C7.306392,321.274261 7.012943,321.591248 6.440255,321.951782 
	C6.123413,321.551788 6.085809,321.108246 6.104611,320.334473 
z"/>
<path fill="#FED363" opacity="1.000000" stroke="none" 
	d="
M546.104614,316.334473 
	C546.640686,316.321899 547.120239,316.639587 547.599792,316.957275 
	C547.306396,317.274292 547.013000,317.591309 546.440308,317.951843 
	C546.123474,317.551819 546.085876,317.108276 546.104614,316.334473 
z"/>
<path fill="#FED363" opacity="1.000000" stroke="none" 
	d="
M590.258301,180.980286 
	C590.083191,180.760376 590.224792,180.495239 590.649292,180.156952 
	C590.922668,180.403152 590.803589,180.686890 590.258301,180.980286 
z"/>
<path fill="#FED363" opacity="1.000000" stroke="none" 
	d="
M651.588379,391.411377 
	C651.673767,391.146606 651.906921,391.114746 652.490479,391.044189 
	C652.472717,391.218445 652.104492,391.431366 651.588379,391.411377 
z"/>
<path fill="#FFFFFF" opacity="1.000000" stroke="none" 
	d="
M230.686829,105.363083 
	C233.291245,113.237602 235.343979,120.903114 238.264359,128.222443 
	C240.247360,133.192398 240.118057,137.795044 238.667938,142.652985 
	C234.488159,156.655457 230.395187,170.684433 226.120087,184.657700 
	C223.356171,193.691696 221.401031,194.999863 212.004608,194.999939 
	C189.687164,195.000107 167.369705,195.005432 145.052261,194.997101 
	C137.169922,194.994156 134.002747,191.770691 134.001984,183.762131 
	C133.997818,139.293793 133.998276,94.825439 134.001602,50.357098 
	C134.002197,42.492695 136.635910,39.310062 144.434616,39.058243 
	C161.192764,38.517124 177.962143,38.105087 194.727509,38.083031 
	C205.599487,38.068729 208.418335,40.605259 211.914215,50.873096 
	C218.063354,68.933838 224.302994,86.963776 230.686829,105.363083 
z"/>
<path fill="#FFFFFF" opacity="1.000000" stroke="none" 
	d="
M328.000000,319.806091 
	C327.730774,331.797882 322.789337,336.907440 310.662720,336.939331 
	C258.176483,337.077423 205.689484,337.070496 153.203217,336.938995 
	C142.413254,336.911957 137.689621,331.612671 137.097717,319.355347 
	C136.884705,314.944122 137.377106,310.419342 138.169571,306.059448 
	C139.124710,300.804718 144.683136,297.037872 150.832169,297.016235 
	C165.161667,296.965790 179.491455,297.000000 193.821136,297.000000 
	C232.977814,296.999969 272.136078,297.196838 311.290192,296.878357 
	C322.824951,296.784515 327.953674,302.109619 327.999023,313.840393 
	C328.006104,315.673248 328.000000,317.506195 328.000000,319.806091 
z"/>
<path fill="#FFFFFF" opacity="1.000000" stroke="none" 
	d="
M37.107006,280.039795 
	C39.986637,276.925751 42.866268,273.811676 46.188576,270.256287 
	C47.500687,268.978088 48.370121,268.141235 49.239555,267.304352 
	C49.239552,267.304352 49.227707,267.217804 49.613472,267.212799 
	C52.677147,265.843048 55.355057,264.478302 58.032970,263.113556 
	C64.932503,262.267212 71.832039,261.420837 79.237083,260.740051 
	C82.826714,261.883545 85.910828,262.861450 88.994942,263.839355 
	C99.866615,269.173431 108.053703,277.115631 112.950928,289.033386 
	C113.510796,291.197388 113.948654,292.700470 114.386505,294.203522 
	C114.557701,294.906708 114.728889,295.609863 114.973900,296.988953 
	C115.085480,298.108521 115.123253,298.552124 115.161018,298.995758 
	C115.097412,301.359589 115.033798,303.723419 114.630630,306.759033 
	C113.165207,316.293121 108.329109,323.278412 102.893036,329.960144 
	C102.569138,330.020325 102.314796,330.186798 101.742897,330.826782 
	C100.156425,332.361389 98.957085,333.528687 97.757736,334.695984 
	C97.757729,334.695984 97.768341,334.782227 97.379227,334.788666 
	C89.995186,337.250427 83.000244,339.705780 76.005310,342.161133 
	C74.286049,342.121582 72.566788,342.082001 70.018150,342.036926 
	C62.805225,339.984070 56.421677,337.936768 50.038124,335.889465 
	C43.121075,330.212341 36.789642,324.047760 33.047871,314.960175 
	C32.317768,312.847321 31.709669,311.400146 31.101570,309.952972 
	C31.076326,304.625854 31.051081,299.298706 31.355831,293.293640 
	C33.492886,288.423737 35.299946,284.231750 37.107006,280.039795 
z"/>
<path fill="#FFFFFF" opacity="1.000000" stroke="none" 
	d="
M352.100861,307.952454 
	C352.075836,303.956085 352.050842,299.959686 352.321533,295.349060 
	C352.691162,294.157715 352.765045,293.580688 352.838928,293.003632 
	C352.898254,292.569611 352.957581,292.135590 353.349487,291.161255 
	C355.157043,287.093903 356.631989,283.566833 358.106995,280.039795 
	C359.663513,277.933868 361.220032,275.827911 363.187347,273.275696 
	C364.767761,271.899567 365.937347,270.969696 367.106964,270.039856 
	C367.430878,269.979706 367.685211,269.813263 368.250610,269.177734 
	C369.500671,267.978088 370.370117,267.141205 371.239532,266.304291 
	C371.239532,266.304291 371.222015,266.212219 371.603302,266.212708 
	C374.000946,265.179871 376.017334,264.146515 378.033691,263.113129 
	C384.932465,262.267120 391.831207,261.421143 399.230957,260.735901 
	C401.820190,261.544220 403.908508,262.191772 405.996796,262.839325 
	C417.237457,268.018768 425.664032,276.046509 430.957581,288.074860 
	C431.776947,291.515350 432.468903,294.255310 433.160889,296.995300 
	C433.097473,300.681854 433.034058,304.368408 432.633545,308.737701 
	C431.987305,310.694794 431.725189,311.982758 431.361328,313.241302 
	C428.894379,321.774292 423.184418,328.055023 416.930176,333.953491 
	C416.930176,333.953491 416.996002,333.996460 416.658112,334.112366 
	C409.548584,336.872559 402.776978,339.516846 396.005371,342.161102 
	C394.286072,342.121552 392.566742,342.081970 390.018555,342.036926 
	C383.139343,339.984283 377.089020,337.937073 371.038696,335.889862 
	C364.700653,330.710632 358.769073,325.178314 355.042908,316.931580 
	C353.979401,313.478302 353.040131,310.715363 352.100861,307.952454 
z"/>
<path fill="#FFFFFF" opacity="1.000000" stroke="none" 
	d="
M516.033569,253.113190 
	C516.472107,253.063293 516.910583,253.013397 518.015747,252.837036 
	C522.799377,250.511475 526.916443,248.312363 531.033447,246.113251 
	C531.471985,246.063339 531.910461,246.013412 533.016357,245.836655 
	C536.319519,244.393616 538.880066,242.867706 541.633362,241.878677 
	C542.556580,241.547058 543.971313,242.583939 545.161377,242.995300 
	C545.098633,261.006561 545.035889,279.017822 544.616821,297.513885 
	C543.842163,298.052826 543.423889,298.106964 543.005554,298.161102 
	C541.934448,298.121765 540.863342,298.082428 539.026978,298.040955 
	C537.520508,297.988922 536.779236,297.939026 536.037964,297.889099 
	C530.824890,297.592712 525.614380,297.228943 520.397705,297.025146 
	C517.245483,296.902008 514.083618,297.027161 510.093933,297.039764 
	C508.520569,296.988892 507.779266,296.938995 507.037994,296.889099 
	C501.824890,296.592712 496.614441,296.228943 491.397736,296.025146 
	C488.245514,295.902008 485.083618,296.027130 481.093933,296.039734 
	C479.520569,295.988892 478.779266,295.938995 478.037994,295.889099 
	C473.331757,295.606445 468.625519,295.323822 463.127197,295.044434 
	C461.891479,295.085510 461.447876,295.123291 461.004242,295.161072 
	C459.517639,289.960144 458.791138,284.792175 462.168518,279.285248 
	C465.455048,277.231171 468.243988,275.672363 471.032898,274.113556 
	C471.471436,274.063568 471.909973,274.013550 473.015259,273.837158 
	C477.798950,271.511658 481.915894,269.312622 486.032867,267.113586 
	C486.471405,267.063599 486.909973,267.013580 488.015259,266.837158 
	C492.799225,264.511536 496.916473,262.312317 501.033691,260.113098 
	C501.472076,260.063232 501.910431,260.013367 503.015442,259.837097 
	C507.799225,257.511566 511.916412,255.312378 516.033569,253.113190 
z"/>
<path fill="#FED363" opacity="1.000000" stroke="none" 
	d="
M417.335144,333.968445 
	C423.184418,328.055023 428.894379,321.774292 431.361328,313.241302 
	C431.725189,311.982758 431.987305,310.694794 432.590698,309.194885 
	C433.477356,309.399109 434.648071,310.020538 434.578339,310.230927 
	C432.368134,316.901428 431.834961,324.532410 424.503815,328.382874 
	C424.051910,328.620209 423.642731,329.410919 423.636230,329.949310 
	C423.585175,334.156708 420.655518,334.036743 417.335144,333.968445 
z"/>
<path fill="#FED363" opacity="1.000000" stroke="none" 
	d="
M103.286743,329.971924 
	C108.329109,323.278412 113.165207,316.293121 114.587997,307.200073 
	C115.481010,307.399231 116.652168,307.957092 116.589149,308.240295 
	C114.992325,315.417297 112.869759,322.425323 107.854515,328.053833 
	C106.919220,329.103485 105.094627,329.360748 103.286743,329.971924 
z"/>
<path fill="#FED363" opacity="1.000000" stroke="none" 
	d="
M515.953674,252.725128 
	C511.916412,255.312378 507.799225,257.511566 503.340790,259.776215 
	C503.049011,252.663834 509.551971,248.873138 515.953674,252.725128 
z"/>
<path fill="#FED363" opacity="1.000000" stroke="none" 
	d="
M396.084442,342.512451 
	C402.776978,339.516846 409.548584,336.872559 416.636841,334.079346 
	C417.736053,339.573914 412.372131,340.138916 409.486938,341.330627 
	C405.512726,342.972168 400.647217,342.455750 396.084442,342.512451 
z"/>
<path fill="#FED363" opacity="1.000000" stroke="none" 
	d="
M500.953949,259.725525 
	C496.916473,262.312317 492.799225,264.511536 488.340759,266.776215 
	C488.049835,259.857819 494.727417,255.965881 500.953949,259.725525 
z"/>
<path fill="#FED363" opacity="1.000000" stroke="none" 
	d="
M485.979553,266.763000 
	C481.915894,269.312622 477.798950,271.511658 473.340759,273.776215 
	C471.790802,267.677032 477.040039,266.991058 480.664368,265.349243 
	C481.986450,264.750305 484.147766,266.003967 485.979553,266.763000 
z"/>
<path fill="#FED363" opacity="1.000000" stroke="none" 
	d="
M530.956665,245.730240 
	C526.916443,248.312363 522.799377,250.511475 518.341187,252.776123 
	C518.048767,245.988998 524.881470,242.013245 530.956665,245.730240 
z"/>
<path fill="#FED363" opacity="1.000000" stroke="none" 
	d="
M76.081795,342.508545 
	C83.000244,339.705780 89.995186,337.250427 97.339447,334.771179 
	C98.960579,339.173279 94.529808,339.446716 92.717010,339.976105 
	C87.372833,341.536682 81.701553,341.977112 76.081795,342.508545 
z"/>
<path fill="#FED363" opacity="1.000000" stroke="none" 
	d="
M545.483032,242.933029 
	C543.971313,242.583939 542.556580,241.547058 541.633362,241.878677 
	C538.880066,242.867706 536.319519,244.393616 533.341858,245.775757 
	C533.576050,238.822601 538.553711,235.910065 544.662659,239.241730 
	C545.464539,239.679092 545.444214,241.624054 545.483032,242.933029 
z"/>
<path fill="#FED363" opacity="1.000000" stroke="none" 
	d="
M50.070602,336.242554 
	C56.421677,337.936768 62.805225,339.984070 69.591766,342.096130 
	C69.670258,342.685547 69.267914,343.700836 69.032593,343.663483 
	C62.253662,342.588013 54.996792,342.717926 50.070602,336.242554 
z"/>
<path fill="#FED363" opacity="1.000000" stroke="none" 
	d="
M57.974598,262.752747 
	C55.355057,264.478302 52.677147,265.843048 49.653534,267.230164 
	C48.741482,264.699005 48.597984,262.446960 51.639194,261.105774 
	C54.186829,259.982269 56.317047,259.520721 57.974598,262.752747 
z"/>
<path fill="#FED363" opacity="1.000000" stroke="none" 
	d="
M371.060791,336.254211 
	C377.089020,337.937073 383.139343,339.984283 389.592163,342.096191 
	C387.899841,342.441010 385.507477,343.506195 383.768646,342.847168 
	C379.383118,341.184998 375.291992,338.746124 371.060791,336.254211 
z"/>
<path fill="#FED363" opacity="1.000000" stroke="none" 
	d="
M36.677795,280.027313 
	C35.299946,284.231750 33.492886,288.423737 31.394468,292.830444 
	C31.126713,289.381683 30.808033,285.660858 31.405323,282.093445 
	C31.562189,281.156525 34.557026,280.694763 36.677795,280.027313 
z"/>
<path fill="#FED363" opacity="1.000000" stroke="none" 
	d="
M470.979431,273.762451 
	C468.243988,275.672363 465.455048,277.231171 462.353027,278.948364 
	C461.661194,275.953217 462.025482,272.951050 465.704773,272.268311 
	C467.318878,271.968811 469.178070,272.989899 470.979431,273.762451 
z"/>
<path fill="#FED363" opacity="1.000000" stroke="none" 
	d="
M357.676086,280.027283 
	C356.631989,283.566833 355.157043,287.093903 353.390900,290.834900 
	C350.224457,284.025909 351.598846,280.367615 357.676086,280.027283 
z"/>
<path fill="#FED363" opacity="1.000000" stroke="none" 
	d="
M377.951111,262.720062 
	C376.017334,264.146515 374.000946,265.179871 371.645355,266.233398 
	C371.564728,264.593750 371.823334,262.933868 372.081970,261.273987 
	C374.010803,261.625000 375.939667,261.976013 377.951111,262.720062 
z"/>
<path fill="#FED363" opacity="1.000000" stroke="none" 
	d="
M88.921059,263.492004 
	C85.910828,262.861450 82.826714,261.883545 79.574402,260.552673 
	C83.105225,259.411682 86.267067,260.345703 88.921059,263.492004 
z"/>
<path fill="#FED363" opacity="1.000000" stroke="none" 
	d="
M433.486206,296.928986 
	C432.468903,294.255310 431.776947,291.515350 431.122772,288.390259 
	C432.044220,290.957672 432.927856,293.910156 433.486206,296.928986 
z"/>
<path fill="#FED363" opacity="1.000000" stroke="none" 
	d="
M351.816345,308.171082 
	C353.040131,310.715363 353.979401,313.478302 354.879028,316.618073 
	C353.736847,314.126495 352.634338,311.258118 351.816345,308.171082 
z"/>
<path fill="#FED363" opacity="1.000000" stroke="none" 
	d="
M405.936188,262.463989 
	C403.908508,262.191772 401.820190,261.544220 399.568542,260.549377 
	C401.561951,260.830963 403.718781,261.459808 405.936188,262.463989 
z"/>
<path fill="#FED363" opacity="1.000000" stroke="none" 
	d="
M98.172729,334.796936 
	C98.957085,333.528687 100.156425,332.361389 101.657913,331.043640 
	C102.163971,333.346466 101.981415,335.474243 98.172729,334.796936 
z"/>
<path fill="#FED363" opacity="1.000000" stroke="none" 
	d="
M114.724457,294.057587 
	C113.948654,292.700470 113.510796,291.197388 113.116837,289.349609 
	C113.794624,290.640442 114.428520,292.276062 114.724457,294.057587 
z"/>
<path fill="#FED363" opacity="1.000000" stroke="none" 
	d="
M30.839039,310.147095 
	C31.709669,311.400146 32.317768,312.847321 32.882568,314.644836 
	C32.085018,313.443878 31.330765,311.892578 30.839039,310.147095 
z"/>
<path fill="#FED363" opacity="1.000000" stroke="none" 
	d="
M366.704956,270.028442 
	C365.937347,270.969696 364.767761,271.899567 363.296906,272.967407 
	C364.098114,272.075989 365.200562,271.046539 366.704956,270.028442 
z"/>
<path fill="#FED363" opacity="1.000000" stroke="none" 
	d="
M543.074463,298.486511 
	C543.423889,298.106964 543.842163,298.052826 544.576538,297.978302 
	C545.403870,298.421234 545.915161,298.884552 546.426453,299.347870 
	C545.332092,299.169220 544.237671,298.990570 543.074463,298.486511 
z"/>
<path fill="#FED363" opacity="1.000000" stroke="none" 
	d="
M370.848907,266.208130 
	C370.370117,267.141205 369.500671,267.978088 368.335571,268.960876 
	C368.846008,268.108521 369.652130,267.110229 370.848907,266.208130 
z"/>
<path fill="#FED363" opacity="1.000000" stroke="none" 
	d="
M48.848915,267.208191 
	C48.370121,268.141235 47.500687,268.978088 46.335571,269.960876 
	C46.846020,269.108521 47.652145,268.110260 48.848915,267.208191 
z"/>
<path fill="#FED363" opacity="1.000000" stroke="none" 
	d="
M536.067261,298.227417 
	C536.779236,297.939026 537.520508,297.988922 538.628479,298.099884 
	C538.028931,298.295898 537.062744,298.430817 536.067261,298.227417 
z"/>
<path fill="#FED363" opacity="1.000000" stroke="none" 
	d="
M478.067200,296.227417 
	C478.779266,295.938995 479.520569,295.988892 480.628540,296.099854 
	C480.028961,296.295868 479.062714,296.430817 478.067200,296.227417 
z"/>
<path fill="#FED363" opacity="1.000000" stroke="none" 
	d="
M507.067200,297.227417 
	C507.779266,296.938995 508.520569,296.988892 509.628540,297.099854 
	C509.028961,297.295898 508.062714,297.430817 507.067200,297.227417 
z"/>
<path fill="#FED363" opacity="1.000000" stroke="none" 
	d="
M352.553986,293.044220 
	C352.765045,293.580688 352.691162,294.157715 352.359741,294.890686 
	C352.157837,294.392670 352.213440,293.738739 352.553986,293.044220 
z"/>
<path fill="#FED363" opacity="1.000000" stroke="none" 
	d="
M461.047943,295.440613 
	C461.447876,295.123291 461.891479,295.085510 462.665436,295.104370 
	C462.678192,295.640656 462.360657,296.120239 462.043121,296.599854 
	C461.725983,296.306610 461.408813,296.013367 461.047943,295.440613 
z"/>
<path fill="#FED363" opacity="1.000000" stroke="none" 
	d="
M115.440613,298.952087 
	C115.123253,298.552124 115.085480,298.108521 115.104362,297.334564 
	C115.640671,297.321777 116.120331,297.639313 116.599991,297.956848 
	C116.306725,298.274017 116.013458,298.591217 115.440613,298.952087 
z"/>
</svg>